<?xml version="1.0" encoding="UTF-8" standalone="no"?>
<svg
   xmlns:dc="http://purl.org/dc/elements/1.1/"
   xmlns:cc="http://creativecommons.org/ns#"
   xmlns:rdf="http://www.w3.org/1999/02/22-rdf-syntax-ns#"
   xmlns:svg="http://www.w3.org/2000/svg"
   xmlns="http://www.w3.org/2000/svg"
   width="210mm"
   height="297mm"
   viewBox="0 0 210 297"
   version="1.1"
   id="svg854">
  <defs
     id="defs848" />
  <metadata
     id="metadata851">
    <rdf:RDF>
      <cc:Work
         rdf:about="">
        <dc:format>image/svg+xml</dc:format>
        <dc:type
           rdf:resource="http://purl.org/dc/dcmitype/StillImage" />
        <dc:title></dc:title>
      </cc:Work>
    </rdf:RDF>
  </metadata>
  <g
     id="layer1">
    <g
       id="g1516">
      <path
         style="fill:#d5fff6;stroke:#000000;stroke-width:4.499;stroke-linecap:round;stroke-linejoin:round;stroke-miterlimit:4;stroke-dasharray:none;stroke-opacity:1"
         d="M 38.600451,75.589186 164.41954,75.207513 127.98833,243.90723 68.646798,244.28889 36.722554,75.589186"
         id="path1417" />
      <path
         style="fill:#00aad4;stroke:#000000;stroke-width:3.465;stroke-linecap:butt;stroke-linejoin:round;stroke-opacity:1;stroke-miterlimit:4;stroke-dasharray:none"
         d="m 49.826211,141.11365 99.652419,-1.09109 -21.4903,103.88467 -59.341534,0.38166 z"
         id="path1419" />
      <path
         id="path1421"
         style="fill:#00d400;stroke:#000000;stroke-width:0.965;stroke-linecap:butt;stroke-linejoin:miter;stroke-opacity:1;stroke-miterlimit:4;stroke-dasharray:none"
         d="m 114.184,203.67957 c -0.25717,2.91461 -0.51434,5.82921 -0.77151,8.74382 -1.97218,3.912 -2.8827,9.31673 -8.00919,10.24801 -3.5646,0.92812 -8.607225,2.08819 -11.064481,-1.48389 -2.744152,-4.44411 1.337276,-9.53968 3.629526,-13.35715 2.758985,-3.90367 6.843745,-7.46261 11.691905,-8.22803 2.78848,-0.45658 4.45525,1.42491 4.52375,4.07724 z" />
      <path
         id="path1423"
         style="fill:#338000;stroke:#000000;stroke-width:0.665;stroke-linecap:butt;stroke-linejoin:miter;stroke-opacity:1;stroke-miterlimit:4;stroke-dasharray:none"
         d="m 111.90161,199.69342 c 2.36514,1.0579 2.94371,4.71731 1.90357,7.88112 0.12264,3.2081 -0.76204,6.26999 -2.30607,9.05829 -0.86324,3.17672 -2.72363,5.21945 -5.9822,5.93753 -2.68026,1.3489 -5.690012,0.79993 -8.563378,0.91139 -1.057478,-0.46994 -3.507195,-3.14773 -3.400869,-3.67973 0.05436,-0.27201 -0.435184,1.7095 -0.210477,2.63455 -0.241487,1.99346 2.236402,2.53291 3.703066,3.10426 2.5842,-0.0253 5.427188,0.44418 7.792938,-0.93685 4.63487,-0.83174 6.59944,-4.54909 8.3332,-8.51587 2.36852,-3.26302 1.73059,-7.43407 2.3708,-11.21909 0.0239,-1.79702 -1.46693,-4.79558 -3.64058,-5.1756 z" />
      <path
         style="fill:none;stroke:#000000;stroke-width:0.765;stroke-linecap:butt;stroke-linejoin:miter;stroke-opacity:1;stroke-miterlimit:4;stroke-dasharray:none"
         d="m 110.74512,202.94179 c 1.36337,2.57617 1.45424,5.15235 -0.0909,7.72852"
         id="path1436" />
      <path
         style="fill:none;stroke:#000000;stroke-width:0.765;stroke-linecap:butt;stroke-linejoin:miter;stroke-opacity:1;stroke-miterlimit:4;stroke-dasharray:none"
         d="m 98.925031,209.94293 c -1.323818,1.69032 -4.508226,6.9771 -1.818475,7.81943"
         id="path1438" />
      <path
         style="fill:none;stroke:#000000;stroke-width:0.765;stroke-linecap:butt;stroke-linejoin:miter;stroke-opacity:1;stroke-miterlimit:4;stroke-dasharray:none"
         d="m 87.725905,130.96403 39.989015,0.24993"
         id="path1440" />
      <path
         style="fill:none;stroke:#000000;stroke-width:1.265;stroke-linecap:butt;stroke-linejoin:miter;stroke-opacity:1;stroke-miterlimit:4;stroke-dasharray:none"
         d="m 152.20819,91.974738 c -7.74787,35.240322 -7.74787,35.240322 -7.74787,35.240322"
         id="path1442" />
      <circle
         style="fill:none;stroke-width:0.665;stroke-linecap:round;stroke-linejoin:round;stroke-miterlimit:4;stroke-dasharray:none;paint-order:markers fill stroke;stroke:#000000;stroke-opacity:1"
         id="path1444"
         cx="87.475975"
         cy="191.19748"
         r="1.8744853" />
      <ellipse
         style="fill:none;stroke:#000000;stroke-width:0.467204;stroke-linecap:round;stroke-linejoin:round;stroke-miterlimit:4;stroke-dasharray:none;stroke-opacity:1;paint-order:markers fill stroke"
         id="path1444-1"
         cx="106.15834"
         cy="196.94591"
         rx="1.286072"
         ry="1.3485548" />
      <ellipse
         style="fill:none;stroke:#000000;stroke-width:0.78731;stroke-linecap:round;stroke-linejoin:round;stroke-miterlimit:4;stroke-dasharray:none;stroke-opacity:1;paint-order:markers fill stroke"
         id="path1444-16"
         cx="114.21863"
         cy="179.01334"
         rx="2.1882274"
         ry="2.2507102" />
      <ellipse
         style="fill:none;stroke:#000000;stroke-width:0.486035;stroke-linecap:round;stroke-linejoin:round;stroke-miterlimit:4;stroke-dasharray:none;stroke-opacity:1;paint-order:markers fill stroke"
         id="path1444-9"
         cx="98.722893"
         cy="166.14188"
         rx="1.3391391"
         ry="1.4016219" />
      <circle
         style="fill:none;stroke:#000000;stroke-width:0.401421;stroke-linecap:round;stroke-linejoin:round;stroke-miterlimit:4;stroke-dasharray:none;stroke-opacity:1;paint-order:markers fill stroke"
         id="path1444-90"
         cx="90.600121"
         cy="143.08569"
         r="1.131515" />
      <ellipse
         style="fill:none;stroke:#000000;stroke-width:0.264875;stroke-linecap:round;stroke-linejoin:round;stroke-miterlimit:4;stroke-dasharray:none;stroke-opacity:1;paint-order:markers fill stroke"
         id="path1444-5"
         cx="95.723717"
         cy="142.39839"
         rx="0.7624079"
         ry="0.73116648" />
    </g>
  </g>
</svg>
