<?xml version="1.0" encoding="UTF-8" standalone="no"?>
<svg
   xmlns:dc="http://purl.org/dc/elements/1.1/"
   xmlns:cc="http://creativecommons.org/ns#"
   xmlns:rdf="http://www.w3.org/1999/02/22-rdf-syntax-ns#"
   xmlns:svg="http://www.w3.org/2000/svg"
   xmlns="http://www.w3.org/2000/svg"
   width="210mm"
   height="297mm"
   viewBox="0 0 210 297"
   version="1.1"
   id="svg8">
  <defs
     id="defs2" />
  <metadata
     id="metadata5">
    <rdf:RDF>
      <cc:Work
         rdf:about="">
        <dc:format>image/svg+xml</dc:format>
        <dc:type
           rdf:resource="http://purl.org/dc/dcmitype/StillImage" />
        <dc:title></dc:title>
      </cc:Work>
    </rdf:RDF>
  </metadata>
  <g
     id="layer1">
    <path
       id="path833"
       style="fill:#ff5555;stroke:#000000;stroke-width:2.29607;stroke-linecap:butt;stroke-linejoin:miter;stroke-miterlimit:4;stroke-dasharray:none;stroke-opacity:1"
       d="m 113.20544,98.598867 c -0.58415,9.088613 -3.94565,18.594823 0.60781,27.309343 3.14241,6.98802 3.79896,14.28545 3.56309,21.72641 -1.93795,10.64885 -19.013732,12.18708 -28.701812,11.31721 -8.97084,-0.35765 -15.48739,-7.13732 -24.15177,-7.95851 -9.270323,0.15054 -12.941368,12.23279 -16.210355,19.21688 -0.06029,7.93219 -3.407772,22.21164 6.661066,24.90538 -0.08816,-8.45944 -1.786879,-17.42837 3.817756,-24.94293 2.843663,-10.03 15.121203,-4.13625 16.868893,3.37836 5.12339,6.36 13.38155,9.62357 20.59432,13.43499 10.504822,2.49439 21.567482,2.11176 32.134672,4.52924 8.7492,2.82844 18.53065,1.43717 23.16039,-6.6915 4.8409,-4.67654 9.38122,-9.62936 13.64839,-14.76909 7.48751,-11.99799 8.136,-37.40121 -0.3426,-59.4275 -2.9547,-7.82408 -14.31045,-7.77704 -21.37308,-5.74456 -7.5275,0.45481 -15.92905,17.12446 -21.50683,8.16506 -1.6575,-7.46366 -2.70869,-15.570093 1.52447,-22.520163 6.79747,-7.1518 -7.08696,-17.01471 -9.3179,-6.79092 -0.0563,4.96391 -0.66891,9.90771 -0.97651,14.8623 z" />
    <path
       style="fill:#ff8080;stroke:none;stroke-width:0.161355px;stroke-linecap:butt;stroke-linejoin:miter;stroke-opacity:1"
       d="m 144.58954,105.69033 c 5.72551,3.62441 7.48484,8.74362 10.45886,13.79994 4.50902,7.66607 11.87199,21.05744 6.55873,29.55067 l -2.90826,12.2539 -1.16659,16.98105 11.90478,-23.21185 -2.01341,-30.94628 -5.14539,-16.20006 -10.51447,-3.53079 -5.31554,1.0097 z"
       id="path846" />
    <path
       id="path839"
       style="fill:#ffdd55;stroke:#000000;stroke-width:1.79771;stroke-linecap:butt;stroke-linejoin:miter;stroke-miterlimit:4;stroke-dasharray:none;stroke-opacity:1"
       d="m 114.06254,171.20129 c 5.66396,-3.70973 7.73868,-1.39614 10.22242,0.23104 2.61899,-2.27894 5.82547,-5.03572 10.17925,-5.05092 3.93222,0.0881 3.16472,3.94196 5.75811,4.90908 5.94333,1.83699 11.90205,-0.97018 17.59353,-2.04131 3.72715,-1.46031 8.44763,-2.06635 7.38204,0.80547 -1.29461,2.25764 -8.01139,4.45661 -8.8401,9.98664 -4.30159,3.29045 -6.35005,8.59701 -11.76353,10.98616 -14.85179,2.24114 -22.79231,-0.72968 -33.00989,-1.34293 -11.777702,-4.90759 -21.950472,-4.36106 -28.290632,-9.81492 -3.22207,-2.86516 3.27688,-3.80372 5.98034,-3.89371 2.83827,-0.13663 5.48577,-0.82193 8.11424,-1.51379 10.283682,2.04601 13.684862,-0.47089 16.674222,-3.26081 z" />
  </g>
</svg>
