<?xml version="1.0" encoding="UTF-8" standalone="no"?>
<svg
   xmlns:dc="http://purl.org/dc/elements/1.1/"
   xmlns:cc="http://creativecommons.org/ns#"
   xmlns:rdf="http://www.w3.org/1999/02/22-rdf-syntax-ns#"
   xmlns:svg="http://www.w3.org/2000/svg"
   xmlns="http://www.w3.org/2000/svg"
   width="210mm"
   height="297mm"
   viewBox="0 0 210 297"
   version="1.1"
   id="svg8">
  <defs
     id="defs2" />
  <metadata
     id="metadata5">
    <rdf:RDF>
      <cc:Work
         rdf:about="">
        <dc:format>image/svg+xml</dc:format>
        <dc:type
           rdf:resource="http://purl.org/dc/dcmitype/StillImage" />
        <dc:title></dc:title>
      </cc:Work>
    </rdf:RDF>
  </metadata>
  <g
     id="layer1">
    <g
       id="g886">
      <path
         style="fill:#ffcc00;stroke:#000000;stroke-width:3.413;stroke-linecap:butt;stroke-linejoin:round;stroke-miterlimit:4;stroke-dasharray:none;stroke-opacity:1"
         d="m 55.224798,155.29331 c 39.064445,23.56428 67.811392,13.5967 95.273212,-0.54755 -9.88617,31.79189 -14.36647,72.59898 -50.945951,67.03071 -1.525769,0.31257 -3.003737,-0.37157 -4.435465,-0.28138 -23.293623,1.46736 -34.347892,-25.99926 -39.891796,-66.20178 z"
         id="path833" />
      <path
         style="fill:#ffcc00;stroke:#000000;stroke-width:2.665;stroke-linecap:round;stroke-linejoin:round;stroke-miterlimit:4;stroke-dasharray:none;stroke-opacity:1"
         d="m 55.224798,155.29331 c 37.655514,-12.15681 66.890212,-6.88166 95.273212,-0.54755 -14.93915,6.19371 -27.89804,14.51999 -48.56523,14.54505 -20.92587,-0.43698 -34.653656,-6.55666 -46.707982,-13.9975"
         id="path835" />
      <path
         id="path837"
         style="fill:#d38d5f;stroke:#000000;stroke-width:1.965;stroke-linecap:butt;stroke-linejoin:miter;stroke-opacity:1;stroke-miterlimit:4;stroke-dasharray:none"
         d="m 147.95936,163.45511 c 5.63052,0.0394 13.13703,-5.78624 16.04482,-3.4684 -0.78791,7.44097 -3.00621,14.64494 -3.95105,22.07388 -0.7514,5.29831 -2.3506,10.44729 -4.24325,15.39876 -1.06468,6.41175 -7.82404,7.9785 -13.29176,8.05782 -3.07328,0.006 -9.4374,2.7226 -10.37501,0.99732 2.95815,-4.92271 9.47472,-3.39024 14.93198,-5.37766 5.91418,-1.85259 6.70355,-8.63632 7.73785,-13.81604 1.41046,-6.68654 3.25069,-13.54993 3.66203,-20.05993 3.21967,-5.429 -7.96547,2.57058 -11.85328,0.4443 0.16973,-1.4986 1.25481,-2.73742 1.33767,-4.25005 z" />
      <path
         style="fill:#d4aa00;stroke:#000000;stroke-width:1.265;stroke-linecap:butt;stroke-linejoin:miter;stroke-opacity:1;stroke-miterlimit:4;stroke-dasharray:none"
         d="m 145.84491,171.33795 9.67587,-2.38583 -3.62293,21.91429 c -0.28095,3.35495 -2.24106,5.53936 -2.78347,7.11331 -5.41803,2.4798 -9.25124,2.24279 -13.87316,3.35783 l -1.02808,2.23154 c 5.45846,-1.04562 13.01779,-1.35468 15.9028,-4.04752 1.91304,-2.12142 2.98097,-5.08795 3.96674,-8.13664 1.52042,-8.68511 5.09279,-21.21765 4.56125,-26.05534 l -12.24664,3.43656"
         id="path839" />
      <rect
         style="fill:#f9f9f9;stroke:#000000;stroke-width:1.98532;stroke-linecap:round;stroke-linejoin:round;paint-order:markers fill stroke"
         id="rect841"
         width="15.441212"
         height="15.441211"
         x="60.938286"
         y="205.50192" />
      <rect
         style="fill:#f2f2f2;stroke:#000000;stroke-width:2.17119;stroke-linecap:round;stroke-linejoin:round;paint-order:markers fill stroke"
         id="rect843"
         width="15.908989"
         height="16.656803"
         x="107.64391"
         y="170.54997"
         transform="matrix(0.9347147,0.35539897,-0.31983838,0.94747212,0,0)" />
      <rect
         style="fill:#f9f9f9;stroke:#000000;stroke-width:1.98532;stroke-linecap:round;stroke-linejoin:round;paint-order:markers fill stroke"
         id="rect841-5"
         width="15.441212"
         height="15.441211"
         x="52.720421"
         y="188.27092" />
      <path
         style="fill:#ff9955;stroke:#000000;stroke-width:1.065;stroke-linecap:butt;stroke-linejoin:miter;stroke-opacity:1;stroke-miterlimit:4;stroke-dasharray:none"
         d="m 66.356774,159.08131 c 31.849075,-7.74184 49.771726,-2.02638 71.355406,-0.12496 -11.2904,5.72666 -24.03495,9.8461 -41.613575,8.62263 -3.488861,1.22344 -22.686914,-4.02201 -30.241692,-8.49767"
         id="path873" />
      <path
         style="fill:none;stroke:#000000;stroke-width:1.465;stroke-linecap:butt;stroke-linejoin:miter;stroke-opacity:1;stroke-miterlimit:4;stroke-dasharray:none"
         d="m 138.55487,168.06847 c -1.24327,14.17723 -9.84342,27.5934 -17.67281,41.0893"
         id="path875" />
    </g>
  </g>
</svg>
