<!--?xml version="1.0" encoding="UTF-8" standalone="no"?-->
<svg xmlns:dc="http://purl.org/dc/elements/1.1/" xmlns:cc="http://creativecommons.org/ns#" xmlns:rdf="http://www.w3.org/1999/02/22-rdf-syntax-ns#" xmlns:svg="http://www.w3.org/2000/svg" xmlns="http://www.w3.org/2000/svg" width="210mm" height="297mm" viewBox="0 0 210 297" version="1.1" id="svg8" style="">
  <defs id="defs2"></defs>
  <metadata id="metadata5">
    <rdf:rdf>
      <cc:work rdf:about="">
        <dc:format>image/svg+xml</dc:format>
        <dc:type rdf:resource="http://purl.org/dc/dcmitype/StillImage"></dc:type>
        <dc:title></dc:title>
      </cc:work>
    </rdf:rdf>
  </metadata>
  <g id="layer1">
    <g id="g887" transform="translate(24.095982,30.789311)">
      <path id="path833" style="fill: rgb(141, 211, 95); stroke: rgb(0, 0, 0); stroke-width: 2.065; stroke-linecap: round; stroke-linejoin: round; stroke-miterlimit: 4; stroke-opacity: 1;" d="m 47.522632,99.395924 c 26.438646,0 52.877288,0 79.315938,0 C 117.49663,109.8859 116.09472,133.74827 98.823657,132.78086 76.591763,132.58499 54.359869,132.38911 32.127975,132.19323 37.25952,121.26079 42.39108,110.32836 47.522632,99.395924 Z" class="FgVPFlEv_0"></path>
      <path id="path835" style="fill: rgb(90, 160, 44); stroke: rgb(0, 0, 0); stroke-width: 2.065; stroke-linecap: butt; stroke-linejoin: round; stroke-miterlimit: 4; stroke-opacity: 1;" d="m 32.127975,132.19323 c 25.323092,0.22311 50.646183,0.44623 75.969275,0.66934 6.24711,-11.15555 12.49421,-22.3111 18.74132,-33.466648 0.0351,10.198828 1.00757,21.831928 -6.15299,30.113708 -2.3151,6.93231 -6.66997,14.39689 -14.62717,15.45051 -6.559881,0.63706 -13.107099,-0.83597 -19.707234,-0.27205 -18.074441,0.0641 -36.148788,0.15128 -54.223201,0.22247 0,-4.23911 0,-8.47822 0,-12.71733 z" class="FgVPFlEv_1"></path>
      <path id="path837" style="fill: rgb(170, 222, 135); stroke: none; stroke-width: 2.065; stroke-linecap: butt; stroke-linejoin: round; stroke-miterlimit: 4; stroke-opacity: 1;" d="m 52.535166,103.88711 c -2.839739,6.78382 -5.679477,13.56764 -8.519216,20.35146 22.639026,-6.15277 45.278054,-12.30553 67.91708,-18.4583 -19.799288,-0.63105 -39.598576,-1.26211 -59.397864,-1.89316 z" class="FgVPFlEv_2"></path>
      <path style="fill: rgb(230, 230, 230); stroke: rgb(0, 0, 0); stroke-width: 2.065; stroke-linecap: round; stroke-linejoin: round; stroke-miterlimit: 4; stroke-opacity: 1; paint-order: markers;" id="path866" d="M80.4592633,99.627502A5.6794777,5.9161224 0,1,1 91.81821869999999,99.627502A5.6794777,5.9161224 0,1,1 80.4592633,99.627502" class="FgVPFlEv_3"></path>
      <path style="fill: rgb(255, 255, 255); stroke: none; stroke-width: 1.29139; stroke-linecap: round; stroke-linejoin: round; stroke-miterlimit: 4; stroke-opacity: 1; paint-order: markers;" id="path868" d="M83.77229200000001,98.680923A3.135545,3.0763834 0,1,1 90.043382,98.680923A3.135545,3.0763834 0,1,1 83.77229200000001,98.680923" class="FgVPFlEv_4"></path>
      <path style="fill: rgb(230, 230, 230); stroke: rgb(0, 0, 0); stroke-width: 2.065; stroke-linecap: round; stroke-linejoin: round; stroke-miterlimit: 4; stroke-opacity: 1; paint-order: markers;" id="path870" d="M34.1359749,84.001266A9.7053261,9.7053261 0,1,1 53.5466271,84.001266A9.7053261,9.7053261 0,1,1 34.1359749,84.001266" class="FgVPFlEv_5"></path>
      <path style="fill: rgb(255, 255, 255); stroke: none; stroke-width: 2.065; stroke-linecap: round; stroke-linejoin: round; stroke-miterlimit: 4; stroke-opacity: 1; paint-order: markers;" id="path872" d="M40.584597099999996,80.991707A4.7920589,5.1470265 0,1,1 50.1687149,80.991707A4.7920589,5.1470265 0,1,1 40.584597099999996,80.991707" class="FgVPFlEv_6"></path>
      <path style="fill: rgb(204, 204, 204); stroke: rgb(0, 0, 0); stroke-width: 2.065; stroke-linecap: round; stroke-linejoin: round; stroke-miterlimit: 4; stroke-opacity: 1; paint-order: markers;" id="path874" d="M76.30394799999999,66.096619A11.043991,11.545992 0,1,1 98.39193,66.096619A11.043991,11.545992 0,1,1 76.30394799999999,66.096619" class="FgVPFlEv_7"></path>
      <path style="fill: rgb(255, 255, 255); stroke: none; stroke-width: 2.33862; stroke-linecap: round; stroke-linejoin: round; stroke-miterlimit: 4; stroke-opacity: 1; paint-order: markers;" id="path876" d="M86.9670051,61.705158A2.6030939,2.8989 0,1,1 92.1731929,61.705158A2.6030939,2.8989 0,1,1 86.9670051,61.705158" class="FgVPFlEv_8"></path>
    </g>
  </g>
<style data-made-with="vivus-instant">.FgVPFlEv_0{stroke-dasharray:229 231;stroke-dashoffset:230;animation:FgVPFlEv_draw_0 6200ms linear 0ms infinite,FgVPFlEv_fade 6200ms linear 0ms infinite;}.FgVPFlEv_1{stroke-dasharray:255 257;stroke-dashoffset:256;animation:FgVPFlEv_draw_1 6200ms linear 0ms infinite,FgVPFlEv_fade 6200ms linear 0ms infinite;}.FgVPFlEv_2{stroke-dasharray:152 154;stroke-dashoffset:153;animation:FgVPFlEv_draw_2 6200ms linear 0ms infinite,FgVPFlEv_fade 6200ms linear 0ms infinite;}.FgVPFlEv_3{stroke-dasharray:37 39;stroke-dashoffset:38;animation:FgVPFlEv_draw_3 6200ms linear 0ms infinite,FgVPFlEv_fade 6200ms linear 0ms infinite;}.FgVPFlEv_4{stroke-dasharray:20 22;stroke-dashoffset:21;animation:FgVPFlEv_draw_4 6200ms linear 0ms infinite,FgVPFlEv_fade 6200ms linear 0ms infinite;}.FgVPFlEv_5{stroke-dasharray:61 63;stroke-dashoffset:62;animation:FgVPFlEv_draw_5 6200ms linear 0ms infinite,FgVPFlEv_fade 6200ms linear 0ms infinite;}.FgVPFlEv_6{stroke-dasharray:32 34;stroke-dashoffset:33;animation:FgVPFlEv_draw_6 6200ms linear 0ms infinite,FgVPFlEv_fade 6200ms linear 0ms infinite;}.FgVPFlEv_7{stroke-dasharray:72 74;stroke-dashoffset:73;animation:FgVPFlEv_draw_7 6200ms linear 0ms infinite,FgVPFlEv_fade 6200ms linear 0ms infinite;}.FgVPFlEv_8{stroke-dasharray:18 20;stroke-dashoffset:19;animation:FgVPFlEv_draw_8 6200ms linear 0ms infinite,FgVPFlEv_fade 6200ms linear 0ms infinite;}@keyframes FgVPFlEv_draw{100%{stroke-dashoffset:0;}}@keyframes FgVPFlEv_fade{0%{stroke-opacity:1;}93.54838709677419%{stroke-opacity:1;}100%{stroke-opacity:0;}}@keyframes FgVPFlEv_draw_0{12.903225806451612%{stroke-dashoffset: 230}25.47840349917988%{ stroke-dashoffset: 0;}100%{ stroke-dashoffset: 0;}}@keyframes FgVPFlEv_draw_1{25.47840349917988%{stroke-dashoffset: 256}39.47512301804265%{ stroke-dashoffset: 0;}100%{ stroke-dashoffset: 0;}}@keyframes FgVPFlEv_draw_2{39.47512301804265%{stroke-dashoffset: 153}47.84034991798797%{ stroke-dashoffset: 0;}100%{ stroke-dashoffset: 0;}}@keyframes FgVPFlEv_draw_3{47.84034991798797%{stroke-dashoffset: 38}49.917987971569175%{ stroke-dashoffset: 0;}100%{ stroke-dashoffset: 0;}}@keyframes FgVPFlEv_draw_4{49.91798797156916%{stroke-dashoffset: 21}51.06615636960087%{ stroke-dashoffset: 0;}100%{ stroke-dashoffset: 0;}}@keyframes FgVPFlEv_draw_5{51.066156369600876%{stroke-dashoffset: 62}54.45598687807546%{ stroke-dashoffset: 0;}100%{ stroke-dashoffset: 0;}}@keyframes FgVPFlEv_draw_6{54.45598687807545%{stroke-dashoffset: 33}56.260251503553846%{ stroke-dashoffset: 0;}100%{ stroke-dashoffset: 0;}}@keyframes FgVPFlEv_draw_7{56.26025150355386%{stroke-dashoffset: 73}60.25150355385457%{ stroke-dashoffset: 0;}100%{ stroke-dashoffset: 0;}}@keyframes FgVPFlEv_draw_8{60.25150355385457%{stroke-dashoffset: 19}61.29032258064516%{ stroke-dashoffset: 0;}100%{ stroke-dashoffset: 0;}}</style></svg>
