<?xml version="1.0" encoding="UTF-8" standalone="no"?>
<svg
   xmlns:dc="http://purl.org/dc/elements/1.1/"
   xmlns:cc="http://creativecommons.org/ns#"
   xmlns:rdf="http://www.w3.org/1999/02/22-rdf-syntax-ns#"
   xmlns:svg="http://www.w3.org/2000/svg"
   xmlns="http://www.w3.org/2000/svg"
   xmlns:sodipodi="http://sodipodi.sourceforge.net/DTD/sodipodi-0.dtd"
   xmlns:inkscape="http://www.inkscape.org/namespaces/inkscape"
   width="500mm"
   height="500mm"
   viewBox="0 0 500 500"
   version="1.1"
   id="svg8"
   sodipodi:docname="airship.svg"
   inkscape:version="1.0.2 (e86c870879, 2021-01-15, custom)">
  <sodipodi:namedview
     pagecolor="#ffffff"
     bordercolor="#666666"
     borderopacity="1"
     objecttolerance="10"
     gridtolerance="10"
     guidetolerance="10"
     inkscape:pageopacity="0"
     inkscape:pageshadow="2"
     inkscape:window-width="1920"
     inkscape:window-height="1001"
     id="namedview21"
     showgrid="false"
     inkscape:zoom="0.21211179"
     inkscape:cx="961.83684"
     inkscape:cy="1210.3887"
     inkscape:window-x="-9"
     inkscape:window-y="-9"
     inkscape:window-maximized="1"
     inkscape:current-layer="svg8" />
  <defs
     id="defs2" />
  <metadata
     id="metadata5">
    <rdf:RDF>
      <cc:Work
         rdf:about="">
        <dc:format>image/svg+xml</dc:format>
        <dc:type
           rdf:resource="http://purl.org/dc/dcmitype/StillImage" />
        <dc:title />
      </cc:Work>
    </rdf:RDF>
  </metadata>
  <g
     id="layer1"
     transform="matrix(1.2325103,0,0,1.8075591,-21.523109,-83.88997)">
    <g
       id="g921">
      <path
         id="path849"
         style="fill:#999999;stroke:#000000;stroke-width:2.265;stroke-linecap:butt;stroke-linejoin:miter;stroke-miterlimit:4;stroke-dasharray:none;stroke-opacity:1"
         d="m 94.740372,128.06475 c 26.629418,-18.05387 55.459368,-21.29528 75.826508,-23.39035 29.43467,1.16914 58.92279,5.87031 87.76713,11.79643 33.36897,8.84518 68.48881,16.693 97.08862,36.91808 26.65789,17.44589 -16.75029,25.77172 -31.58664,28.98613 -46.66207,5.7953 -93.76863,-0.6354 -140.17507,-6.00013 -28.31491,-3.04598 -50.6702,-14.15914 -74.90266,-28.91853 -3.81113,-6.33567 -13.268071,-11.77939 -14.017888,-19.39163 z" />
      <path
         style="fill:#666666;stroke:#000000;stroke-width:1.965;stroke-linecap:butt;stroke-linejoin:miter;stroke-miterlimit:4;stroke-dasharray:none;stroke-opacity:1"
         d="m 152.85147,170.13333 1.03278,6.19668 3.58031,0.89508 c 0,0 3.64916,0.2754 3.99342,0.2754 0.34426,0 4.40652,0.48197 4.68193,0.48197 0.27541,0 1.7213,-1.85901 1.7213,-1.85901 l 0.96393,-1.65244 -3.85571,-0.68852 z"
         id="path851" />
      <path
         style="fill:#cccccc;stroke:#000000;stroke-width:1.965;stroke-linecap:butt;stroke-linejoin:miter;stroke-miterlimit:4;stroke-dasharray:none;stroke-opacity:1"
         d="m 329.25033,138.39255 3.16719,-4.68194 6.1967,-1.10163 10.19008,1.79015 6.74751,1.10163 1.51474,7.02291 0.13769,8.81306 0.27543,4.26882 -10.1901,-9.36387 z"
         id="path853" />
      <path
         style="fill:none;stroke:#000000;stroke-width:1.965;stroke-linecap:butt;stroke-linejoin:miter;stroke-miterlimit:4;stroke-dasharray:none;stroke-opacity:1"
         d="m 345.18182,159.39707 11.97668,0.0974 10.224,0.97371 13.72936,2.53166 -7.69234,1.16846 -8.47132,0.97371 -5.4528,-0.0974 -6.42651,-1.85005 -5.7449,-2.14218 z"
         id="path855" />
      <path
         style="opacity:0.52459;fill:#4d4d4d;stroke-width:1.965;stroke-linejoin:round;stroke-miterlimit:4;stroke-dasharray:none;paint-order:markers fill stroke"
         id="path905"
         d="m 334.82645,174.94602 c 0.28167,0.97343 -1.58078,-0.6211 -1.68709,-0.0684 -0.0458,0.23821 0.32157,0.36355 0.49181,0.53635 0.19232,0.19522 0.3212,0.56961 0.59523,0.56707 0.6096,-0.006 1.15803,-0.38191 1.73151,-0.58861 0.79798,-0.2876 1.58829,-0.59607 2.38244,-0.8941 4.49583,-1.70877 8.99539,-3.46581 13.08264,-6.02817 0.25649,-0.22799 0.57312,-0.40251 0.76944,-0.68396 0.84986,-1.21838 -0.4708,-1.65845 -1.85309,-1.99018 -0.48787,-0.11709 -0.98005,0.216 -1.46698,0.33689 -1.38221,0.34316 -2.75688,0.7162 -4.13772,1.06497 -4.76448,1.37318 -9.52031,2.77934 -14.23532,4.31488 -1.68008,0.2721 -3.32632,0.6663 -4.95607,1.15414 -1.31278,0.62834 -3.5342,1.24807 -1.54138,3.24218 0.51212,0.51245 3.82743,0.74058 4.14028,0.77552 1.38919,0.0593 2.77719,0.19003 4.16761,0.17791 3.95906,-0.0345 8.73305,-0.62447 12.55863,-1.63333 2.40594,-0.63449 4.29271,-1.47786 6.56833,-2.40331 0.55989,-0.29801 7.42546,-3.05531 4.09007,-4.93302 -1.07427,-0.60476 -5.34223,0.16592 -6.25602,0.28725 -6.73675,1.292 -13.31886,3.22047 -19.8142,5.40129 -0.83727,0.22688 -1.59237,0.6695 -2.40723,0.95416 -0.13063,0.0456 -0.29657,0.004 -0.40532,0.0897 -0.0764,0.0602 0.3891,0.004 0.29189,-2.7e-4 -0.23611,-0.01 -0.4726,-0.006 -0.70874,-0.0147 -0.35637,-0.0603 -3.97423,0.0758 -3.93015,0.51141 0.0691,0.68292 0.42929,1.30397 0.64392,1.95596 5.01145,0.42501 10.05782,-0.44871 14.8086,-2.03473 0.83854,-0.27995 1.65401,-0.62485 2.48102,-0.93727 2.96558,-1.37074 5.77059,-3.04015 8.32699,-5.07162 0.63654,-0.43848 1.54935,-1.21256 1.37785,-2.10988 -0.0488,-0.25532 -0.19309,-0.48271 -0.28964,-0.72406 -0.57825,-0.11244 -1.14573,-0.34554 -1.73474,-0.33733 -0.70742,0.01 -2.95,1.03661 -3.33817,1.19731 -2.86827,1.1875 -5.74995,2.33236 -8.64505,3.45281 -3.36497,1.25612 -6.7388,2.56924 -10.22289,3.46796 -3.82762,1.08042 -7.25715,3.09293 -10.67961,5.05684 -0.80577,0.50844 -2.90928,1.74728 -0.74772,2.99223 0.58169,0.33503 1.34107,-0.0953 2.00351,-0.20414 0.57443,-0.0944 1.13122,-0.27556 1.69899,-0.40407 0.68345,-0.15469 1.36964,-0.29699 2.05447,-0.44549 0.95617,-0.12222 1.91301,-0.23917 2.8685,-0.36666 1.92725,-0.25717 3.85641,-0.50012 5.78284,-0.7633 0.9026,-0.12331 2.81797,-0.39629 3.80183,-0.66411 0.32975,-0.0898 0.63896,-0.24265 0.95848,-0.36398 1.03161,-0.65126 1.28412,-1.24821 0.27942,-2.28262 -0.31369,-0.32297 -1.94299,-0.13431 -2.43824,-0.12498 -1.82909,0.20918 -3.59659,0.73651 -5.39612,1.09778 -0.15087,0.0632 0.74236,2.19679 0.89323,2.13363 v 0 c 1.75149,-0.26463 3.47514,-0.6536 5.18919,-1.09991 0.22942,-0.0295 0.45887,-0.0591 0.68829,-0.0886 -0.0335,-0.0161 -0.10784,-0.012 -0.10044,-0.0484 0.0122,-0.0604 0.14402,-0.0643 0.13587,-0.12536 -0.046,-0.34451 -0.30359,-0.6554 -0.2866,-1.00255 0.0111,-0.22598 0.33938,-0.34815 0.3637,-0.57308 0.0109,-0.0999 -0.20085,-0.003 -0.30128,-0.004 -4.61222,0.18362 -9.26447,0.36886 -13.70672,1.76824 -0.411,0.12792 -3.03665,0.90407 -3.58923,1.21193 -0.43892,0.24453 -0.13716,1.97285 -0.0946,2.10346 0.17775,0.54586 2.29592,-2.30836 1.61234,-0.60524 1.88508,-0.93123 3.73037,-1.93141 5.59102,-2.9105 1.14234,-0.6011 2.25753,-1.25696 3.42752,-1.80233 0.31279,-0.14581 0.64513,-0.24528 0.96771,-0.36792 3.72994,-0.68116 7.48104,-1.36638 11.01265,-2.80116 1.04418,-0.41508 2.1042,-0.79237 3.13256,-1.24526 1.90738,-0.84002 3.58807,-1.75009 5.39022,-2.77095 0.54661,-0.30962 1.07702,-0.64715 1.62224,-0.95919 0.30779,-0.17616 0.89893,-0.15248 0.93636,-0.50515 0.0344,-0.32368 -0.55178,-0.34543 -0.82769,-0.51815 -0.0767,-0.57745 0.11636,-0.52105 -0.3901,-0.24683 -0.18521,0.10026 -0.36994,0.20137 -0.55489,0.30205 -2.68816,1.49612 -5.2996,3.17627 -8.24971,4.12649 -2.9569,0.78493 -5.91169,1.56671 -8.9064,2.19827 -1.11638,0.23544 -4.24513,0.79939 -5.52635,1.09762 -0.27692,0.0644 -0.54221,0.17138 -0.81331,0.25708 -0.0715,0.64566 -0.23899,1.28783 -0.21449,1.93697 0.004,0.0959 0.19219,0.0129 0.28784,0.005 0.70903,-0.0567 1.45573,-0.15644 2.15138,-0.3052 0.0145,-0.003 -0.0177,-0.0239 -0.0265,-0.0359 0.56266,-0.0209 1.11286,0.0435 1.67902,0.043 1.16192,-7.9e-4 2.30005,-0.31082 3.42871,-0.53863 6.60998,-1.61158 13.28502,-2.98327 19.78919,-5.00193 0.7588,-0.2215 4.90516,-0.71156 3.9089,-2.97798 -0.10581,-0.24075 -0.48297,0.20825 -0.7257,0.30949 -2.11439,0.88195 -1.55281,0.64404 -4.02201,1.59713 -2.78945,0.89643 -3.40902,1.15951 -6.37905,1.82853 -4.75088,1.07016 -9.60546,1.55688 -14.44887,1.9843 -0.78007,0.0448 -1.56136,0.0715 -2.34019,0.13429 -0.42087,0.0339 -0.94202,-0.12532 -1.25714,0.15574 -0.34515,0.30787 -0.37412,0.86557 -0.40523,1.32703 -0.008,0.12431 0.21709,-0.12243 0.32784,-0.17947 0.23895,-0.12305 0.47578,-0.25094 0.72107,-0.36074 0.22265,-0.0997 0.45421,-0.17801 0.68133,-0.26701 1.58541,-0.52028 3.22032,-0.84818 4.89093,-0.93162 5.02825,-0.70325 9.88084,-2.13568 14.6087,-3.98034 1.29979,-0.48947 2.60752,-0.95776 3.90546,-1.45211 0.37217,-0.14175 1.02037,-0.059 1.10774,-0.44752 0.11543,-0.51336 -0.52944,-0.91908 -0.68758,-1.42093 -0.0393,-0.12454 0.25302,-0.36755 0.12253,-0.37206 -0.28144,-0.01 -0.51268,0.23314 -0.76904,0.3497 -1.84883,0.80757 -3.6831,1.64157 -5.54505,2.41945 -1.67963,0.70171 -3.37805,1.35795 -5.05759,2.05984 -0.86514,0.36155 -1.72064,0.74573 -2.58096,1.1186 -0.53126,0.26747 -3.40948,1.63283 -4.00116,2.21043 -2.21509,2.16237 -0.50837,3.19058 1.60382,2.90862 0.15579,0.04 0.72144,-2.16312 0.56565,-2.20312 z" />
      <path
         style="fill:#cccccc;stroke:#000000;stroke-width:1.965;stroke-linecap:butt;stroke-linejoin:miter;stroke-miterlimit:4;stroke-dasharray:none;stroke-opacity:1"
         d="m 328.33654,181.20828 3.60275,6.23177 5.93965,6.816 c 0,0 1.94744,-0.48686 3.50536,-0.48686 1.55795,0 14.02152,-0.87634 14.02152,-0.87634 l 1.55792,-1.85006 1.07108,-16.26103 -0.58422,-3.11589 -6.85615,3.76906 z"
         id="path857" />
      <path
         style="opacity:0.52459;fill:#e6e6e6;stroke-width:1.965;stroke-linejoin:round;stroke-miterlimit:4;stroke-dasharray:none;paint-order:markers fill stroke"
         id="path899"
         d="m 115.31062,122.173 c 1.29007,-0.38164 2.6282,-0.55759 3.93005,-0.8875 1.0483,-0.26566 2.08104,-0.5894 3.11967,-0.89067 3.83941,-1.1137 7.65244,-2.30998 11.48919,-3.43281 3.40779,-0.94788 6.79182,-1.9793 10.2273,-2.82527 1.55745,-0.38352 3.15389,-0.64936 4.67896,-1.15288 -0.30099,-0.46322 -0.42111,-1.11952 -0.90297,-1.38964 -0.50779,-0.28466 -1.16177,-0.10008 -1.74387,-0.0941 -1.01005,0.0104 -2.01929,0.0727 -3.02694,0.14303 -1.17728,0.0822 -2.35456,0.17497 -3.52644,0.31441 -2.62746,0.31261 -4.26993,0.66102 -6.84483,1.14148 -4.1909,0.86085 -8.48243,1.89877 -11.9807,4.49145 -0.40872,0.30291 -0.77318,0.66139 -1.15976,0.99208 -2.15145,2.08673 -4.78637,3.55835 -7.39732,4.9834 -0.89651,0.69909 -2.23155,1.01837 -3.09857,1.75746 -0.10111,0.0862 -0.26956,0.17671 -0.25242,0.30847 0.0552,0.42417 0.29926,0.80143 0.44889,1.20215 0.44928,0.0331 0.89734,0.0986 1.34784,0.0994 2.36269,0.004 4.79096,-0.67301 6.95091,-1.58615 0.42239,-0.17857 0.81977,-0.41132 1.22966,-0.61698 0.1608,-0.21914 0.51181,-0.38721 0.48239,-0.65742 -0.16673,-1.53142 -0.90706,-1.56061 -2.138,-1.66203 -0.8114,-0.0669 -1.628,-0.0583 -2.44202,-0.0443 -1.44079,0.0248 -2.77017,0.19331 -4.20185,0.34089 -2.21044,0.36558 -4.60004,0.69497 -6.40101,2.14111 -0.21252,0.0926 -0.52793,0.23761 -0.7486,0.30127 -0.0966,0.0279 -0.39197,0.0193 -0.29708,0.0526 0.22541,0.0791 0.52724,-0.0606 0.7106,0.0925 0.22678,0.18931 0.0906,0.70156 0.36665,0.80682 0.32425,0.12366 0.66752,-0.19009 1.00128,-0.28514 0.54505,-0.19228 1.0935,-0.3752 1.63517,-0.57684 0.11208,-0.0417 3.42918,-1.33637 3.59631,-1.40398 0.97679,-0.39514 1.98356,-0.78409 2.90361,-1.30293 -0.26931,-0.46867 -0.35778,-1.10678 -0.80794,-1.40601 -0.34986,-0.23256 -0.84085,0.002 -1.25992,0.0315 -0.62173,0.0438 -1.24259,0.10536 -1.8603,0.18849 -0.77628,0.10446 -1.55312,0.21398 -2.31987,0.37405 -1.31776,0.27509 -3.04192,0.80898 -4.34625,1.19316 -1.1118,0.49529 -3.704328,0.93549 -4.350748,2.17072 -0.09171,0.17524 -0.122912,0.37599 -0.184367,0.56399 0.03214,0.39443 -0.0078,0.72158 0.289277,1.04382 0.765903,0.83086 2.312978,0.9325 3.330118,0.99821 0.99706,0.0644 1.99736,0.0603 2.99604,0.0905 1.14653,-0.038 2.29579,-0.0263 3.4396,-0.11392 1.37235,-0.10509 2.73943,-0.27635 4.10299,-0.46366 3.12638,-0.42946 6.74934,-1.07834 9.82394,-1.74194 1.5836,-0.34179 3.15167,-0.75198 4.72859,-1.1234 1.44981,-0.34147 2.90105,-0.67683 4.35158,-1.01526 1.25478,-0.30331 2.50962,-0.60637 3.76435,-0.90993 1.09369,-0.26461 2.18798,-0.52675 3.28088,-0.79458 2.43155,-0.59589 4.86632,-1.2489 7.35103,-1.5949 0.9257,-0.1289 1.85846,-0.20079 2.78768,-0.30118 4.00102,-0.37228 7.93962,-1.1938 11.92821,-1.66318 1.19459,-0.14058 2.84308,-0.27374 4.05974,-0.37837 1.13937,-0.11011 2.28459,-0.13786 3.42622,-0.2097 0.19983,-0.0126 0.55836,0.14634 0.5986,-0.0498 0.35581,-1.73424 -0.6204,-1.43521 -1.73772,-1.6148 -6.43731,-0.4973 -12.90334,-0.55465 -19.34848,-0.20159 -0.34775,0.0269 -1.00025,-0.26531 -1.04326,0.0808 -0.2272,1.8282 3.29702,0.9714 3.37042,0.96712 4.95213,-0.28862 9.90606,-0.52008 14.85896,-0.7978 4.01763,-0.3213 8.06991,-0.40385 12.06977,-0.94182 0.35859,-0.0482 0.70463,-0.16551 1.0597,-0.2351 1.43482,-0.2812 0.83183,-0.003 1.5509,-0.38699 1.16452,-1.21538 0.0338,0.0127 0.60459,-0.6941 0.29194,-0.36146 0.71557,-0.60641 0.26177,-1.24373 -0.22309,-0.31331 -0.65797,-0.3985 -0.98695,-0.59774 -0.53394,-0.12517 -1.06177,-0.28016 -1.60184,-0.37551 -1.62167,-0.28628 -3.82385,-0.48269 -5.41642,-0.59614 -1.20752,-0.086 -2.41598,-0.16684 -3.62596,-0.20474 -2.73386,-0.0856 -4.45214,0.007 -7.19509,0.0871 -1.60408,0.11654 -2.26997,0.10837 -3.72675,0.37912 -0.25414,0.0472 -0.53147,0.0577 -0.75063,0.19476 -0.0825,0.0516 0.22075,0.0219 0.27273,0.10415 0.22871,0.36188 0.1686,0.94246 0.53186,1.16898 0.31177,0.19441 0.72735,-0.10467 1.09102,-0.157 0.54428,-0.11017 1.08418,-0.24476 1.63284,-0.33052 1.52982,-0.2391 4.03147,-0.47247 5.4992,-0.5917 3.73948,-0.30379 7.48902,-0.48489 11.23476,-0.68989 1.86751,-0.20058 3.75313,-0.1736 5.62226,-0.35375 0.28136,-0.0271 0.88121,0.11722 0.83251,-0.16121 -0.4074,-2.32898 -1.9502,-1.88143 -3.71196,-1.99387 -1.12597,-0.0719 -2.25427,-0.10072 -3.38141,-0.15108 -5.55573,-0.0978 -11.12866,-0.21023 -16.66879,0.29777 -0.70363,0.13794 -1.44569,0.15073 -2.13607,0.36036 -0.14414,0.0438 -0.25748,0.16022 -0.39855,0.21307 -0.18382,0.0689 -1.07949,0.20076 -1.13787,0.21028 -0.77108,0.28927 -1.84629,0.33139 -2.51297,0.86699 -0.12392,0.0995 -0.38305,0.29789 -0.26066,0.3993 1.85704,1.53878 2.13766,1.11498 4.30963,0.94232 4.56377,-0.59486 9.014,-1.83356 13.55194,-2.58202 0.59719,-0.0985 1.2,-0.1592 1.79999,-0.2388 1.52667,-0.22772 3.04943,-0.0681 4.57416,0.0563 0.79148,0.0645 0.60082,0.25091 0.83262,-0.0406 -0.16314,-0.42808 -0.11797,-1.0161 -0.48941,-1.28425 -0.4057,-0.29288 -0.99545,-0.10315 -1.49385,-0.14749 -0.88143,-0.0784 -1.76314,-0.15418 -2.64554,-0.22081 -3.45704,-0.26103 -6.89922,-0.30629 -10.36474,-0.3084 -3.21115,0.14266 -6.567,-0.0808 -9.64479,1.03199 -0.92551,0.33463 -1.22336,0.55401 -2.02152,1.02556 -1.48786,0.77468 -2.98297,1.53983 -4.50342,2.24921 -0.78652,0.20908 -1.53395,0.5211 -2.26667,0.86987 -0.14555,0.0693 -0.28608,0.14929 -0.43407,0.21321 -0.0276,0.0119 -0.11183,-0.007 -0.0893,0.0128 0.31712,0.28086 0.66373,0.52655 0.9956,0.78982 0.07,0.003 0.14215,0.0249 0.21002,0.008 0.24663,-0.063 0.48198,-0.16399 0.72297,-0.24599 0.49215,-0.1219 0.98134,-0.25651 1.47647,-0.3657 2.28684,-0.50433 4.58628,-0.96931 6.88546,-1.41382 1.15778,-0.27411 2.34761,-0.34743 3.51621,-0.55246 0.41396,-0.0726 0.37232,-0.0154 0.29974,-0.2686 0.0801,0.0661 1.01445,-1.06732 0.9343,-1.13339 v 0 c -0.74777,-0.65968 -0.36623,-0.47619 -1.87214,-0.51644 -1.48827,-0.0398 -2.29047,0.12336 -3.82423,0.30816 -2.01611,0.39288 -2.8431,0.50182 -4.81671,1.0966 -1.41125,0.42532 -3.36264,1.02345 -4.4898,2.08299 -0.16481,0.15493 -0.26778,0.36465 -0.40167,0.54697 0.29742,0.34858 0.52782,0.76797 0.89225,1.04575 0.10902,0.0831 0.27394,-0.0243 0.40752,-0.055 0.98442,-0.22633 1.89892,-0.72948 2.85945,-1.02857 1.52141,-0.73992 3.04142,-1.48164 4.55059,-2.24624 0.66321,-0.27606 1.07605,-0.47832 1.80512,-0.63518 2.65001,-0.57018 5.3988,-0.0534 8.06761,-0.0371 3.90801,0.0814 7.8076,0.10353 11.71325,-0.11192 0.85856,-0.0474 1.71497,-0.13145 2.5699,-0.22352 0.50743,-0.0547 1.09734,0.0758 1.51572,-0.21649 0.45287,-0.31638 0.55969,-0.95262 0.83953,-1.42892 -0.10987,-0.10333 -0.19302,-0.24603 -0.3296,-0.30999 -0.40543,-0.18987 -1.55359,-0.33292 -1.90079,-0.37638 -1.58725,-0.19864 -3.18825,-0.24336 -4.78625,-0.18817 -1.37336,0.0998 -2.81224,0.1858 -4.17481,0.36889 -3.82624,0.51411 -7.58563,1.46239 -11.32814,2.38506 -0.67886,0.17732 -1.50809,0.0705 -2.03657,0.53197 -0.37124,0.32421 -0.16105,0.97251 -0.24275,1.45857 -0.008,0.0487 -0.0762,0.14761 -0.0269,0.14566 0.21074,-0.008 0.40776,-0.10828 0.60982,-0.16872 0.30469,-0.0911 0.60794,-0.18717 0.91024,-0.286 0.28944,-0.0946 0.57656,-0.19622 0.86484,-0.29433 1.02671,-0.36031 0.4641,-0.13699 1.28514,-0.5054 0.0689,-0.0309 0.21846,-0.0148 0.20814,-0.0897 -0.0102,-0.0738 -0.29404,-0.0389 -0.22284,-0.017 0.36996,0.11398 0.78283,0.051 1.14312,0.20513 5.92453,0.69385 11.91166,0.551 17.86397,0.46555 1.10442,-0.0629 2.21108,-0.0944 3.31324,-0.18882 0.458,-0.0392 4.47157,0.0697 3.63845,-2.1878 -0.23134,-0.62685 -1.31941,-0.21955 -1.98478,-0.28081 -2.11875,-0.19506 -3.7056,-0.13862 -5.87809,-0.14099 -6.19276,0.31851 -12.5376,0.67985 -18.4162,2.81825 -0.98373,0.49864 -1.68488,0.45766 -1.1037,1.98558 0.0749,0.19692 0.41363,0.0812 0.62206,0.11188 1.52609,0.22473 3.07641,0.24402 4.61328,0.31924 5.50271,0.24783 11.01226,0.13405 16.51826,0.0877 0.10634,-0.10911 0.24486,-0.19422 0.31903,-0.32731 0.80329,-1.44151 -0.8782,0.66802 -0.11656,-10e-4 -1.38874,-0.53035 1.29157,-0.17326 -2.70033,-0.5109 -4.15577,-0.35151 -8.33301,-0.20675 -12.49289,-0.0322 -4.94316,0.40379 -9.97482,0.69484 -14.77317,2.07173 -1.31993,0.37875 -3.61388,0.74296 -3.10597,2.89804 0.0978,0.41509 0.77211,0.3624 1.15817,0.5436 0.81456,0.0878 1.62613,0.2101 2.44367,0.26345 2.46748,0.16101 5.82128,0.143 8.19186,0.10986 1.99244,-0.0279 5.27294,-0.13985 7.31954,-0.29586 0.86356,-0.0658 1.72267,-0.18076 2.584,-0.27114 1.24715,-0.27466 2.19399,0.0175 1.6971,-1.83053 -0.0552,-0.20538 -0.4095,-0.12445 -0.62107,-0.1461 -1.50755,-0.15434 -3.0418,-0.10481 -4.55331,-0.11721 -2.26348,0.0753 -4.53226,0.14434 -6.78817,0.35686 -3.17898,0.29948 -6.34194,0.78349 -9.47217,1.4099 -6.97339,1.2705 1.08991,-0.16353 -5.06566,0.83445 -0.84029,0.13624 -1.67445,0.30834 -2.51393,0.44945 -3.34681,0.56259 -6.69719,1.10261 -10.0303,1.74598 -4.86716,0.98266 -4.18037,0.8259 -9.15684,1.90677 -5.5025,1.19511 -10.98236,2.56963 -16.58917,3.19794 -0.60236,0.0753 -1.20322,0.16383 -1.80708,0.22598 -0.51717,0.0532 -1.03633,0.0855 -1.55509,0.12005 -0.24815,0.0165 -0.49892,-7e-5 -0.74536,0.0334 -0.08707,0.0118 -0.157261,0.0843 -0.243566,0.10078 -0.04243,0.008 -0.13004,-0.0535 -0.165849,-0.0759 -0.02365,0.0173 -0.09516,0.0355 -0.07092,0.052 0.02651,0.018 0.05643,-0.0313 0.08695,-0.0411 0.130601,-0.042 0.263462,-0.0766 0.395445,-0.114 1.21914,-0.34543 2.44759,-0.65705 3.6902,-0.90776 1.42056,-0.35665 2.83962,-0.71929 4.26122,-1.07179 0.60872,-0.15093 3.17158,-0.76397 3.92345,-0.97553 0.32474,-0.0914 0.85011,0.002 0.96124,-0.31663 0.1601,-0.45888 -0.23841,-0.94233 -0.35761,-1.4135 -1.12937,0.14361 -2.1964,0.49787 -3.26776,0.88046 -1.78562,0.63767 -3.53518,1.37899 -5.18016,2.32794 -0.5936,0.41457 -1.77897,0.88097 -1.25482,2.00274 0.35869,0.76765 1.9225,-0.10124 2.30944,-0.35895 0.47833,-0.19006 0.98763,-0.30956 1.48797,-0.42439 1.53617,-0.35254 3.0947,-0.58058 4.66182,-0.74569 1.79269,-0.19203 3.5948,-0.30308 5.3765,-0.58104 0.37047,-0.0578 0.81945,0.0511 1.10923,-0.18687 1.69644,-1.39299 0.26545,-0.97869 0.0208,-0.9236 -1.5901,0.50769 -3.17849,1.02527 -4.78221,1.48879 -0.56123,0.16221 -1.12392,0.31991 -1.69024,0.46335 -0.38665,0.0979 -0.79194,0.12724 -1.16787,0.26053 -0.0752,0.0267 -0.0877,0.13347 -0.1315,0.2002 -0.0112,0.3521 -0.0589,0.70493 -0.0337,1.05631 0.003,0.0363 0.0741,-0.002 0.10843,-0.0139 0.15277,-0.0538 0.29874,-0.12542 0.45018,-0.18288 0.98788,-0.3748 1.97781,-0.7449 2.91242,-1.24557 1.44399,-0.76432 2.86351,-1.54952 4.20119,-2.4932 1.47965,-1.04382 1.08775,-0.83661 2.41337,-1.94347 0.31156,-0.26014 0.63441,-0.50647 0.95161,-0.75971 0.81454,-0.54959 1.71641,-1.19832 2.60632,-1.6095 0.59328,-0.27411 1.21757,-0.47684 1.837,-0.68524 2.71738,-0.91423 5.51929,-1.49935 8.33189,-2.03511 8.78596,-1.3498 -2.45342,0.37294 6.76959,-1.02727 1.15421,-0.17523 2.31282,-0.32445 3.46166,-0.53195 0.95645,-0.17275 1.90876,-0.3724 2.85162,-0.60834 0.57977,-0.14508 1.38138,-0.0355 1.71172,-0.53359 0.29252,-0.44104 -0.21827,-1.03571 -0.32741,-1.55357 -0.30324,-0.0329 -0.60472,-0.10096 -0.90973,-0.0986 -1.28463,0.01 -3.17171,0.27269 -4.35937,0.47555 -3.56155,0.60833 -7.06071,1.5332 -10.52171,2.55933 -3.37314,0.98007 -4.44511,1.24192 -7.76701,2.4066 -1.21911,0.42743 -2.42027,0.90444 -3.63071,1.35585 -1.82611,0.68101 -3.56351,1.28609 -5.33605,2.08344 -0.43962,0.19775 -0.85614,0.44328 -1.28421,0.66492 -0.0961,0.0633 0.79992,1.42219 0.896,1.35883 z" />
      <path
         style="fill:none;stroke:#000000;stroke-width:0.264583px;stroke-linecap:butt;stroke-linejoin:miter;stroke-opacity:1"
         d="m 353.06889,163.19456 v 0 l -10.51611,-1.07109 -27.26401,-4.57646 -166.89467,-22.59018 -53.653728,-6.89208 23.663318,-2.65032 32.32732,1.3632 187.73217,27.6535 8.41328,1.65639 8.39994,3.02949 h 0.13771"
         id="path859" />
      <path
         style="fill:none;stroke:#000000;stroke-width:0.264583px;stroke-linecap:butt;stroke-linejoin:miter;stroke-opacity:1"
         d="m 94.740372,128.06475 17.042058,7.8658 35.44321,10.12663 90.16596,15.96892 64.8494,5.64754 33.88527,1.75269 24.63495,0.0974"
         id="path861" />
      <path
         style="fill:none;stroke:#000000;stroke-width:0.264583px;stroke-linecap:butt;stroke-linejoin:miter;stroke-opacity:1"
         d="m 355.27638,159.11701 -9.22615,-9.15732 -22.44577,-10.74092 -29.33094,-9.50157 -38.55714,-10.60321 -24.51131,-4.54424 -66.23564,-5.78356 -32.77356,2.34096 -15.97367,5.78357 -21.481828,11.15403 29.116118,22.27678 37.1959,9.5424 96.00825,14.02149 55.11224,3.11588 26.09555,-2.33691 19.18217,-3.01852"
         id="path863" />
      <path
         style="opacity:0.52459;fill:#e6e6e6;stroke-width:1.965;stroke-linejoin:round;stroke-miterlimit:4;stroke-dasharray:none;paint-order:markers fill stroke"
         id="path895"
         d="m 123.84038,124.22244 c 6.79966,-1.07968 13.59378,-2.18839 20.3754,-3.37826 2.81309,-0.46155 5.56613,-1.2028 8.33655,-1.86027 1.42161,-0.33736 2.03008,-0.54729 3.45399,-0.64638 0.54616,-0.038 1.09492,-0.011 1.64238,-0.0165 1.7189,0.0625 3.43003,0.28315 5.14808,0.35429 0.2632,0.0109 0.73641,0.25977 0.79026,0.002 0.16045,-0.76837 -0.20199,-1.55685 -0.30298,-2.33527 -6.94135,-1.4857 -14.09585,-1.52986 -21.16314,-1.46741 -2.98027,-0.014 -5.95128,0.15688 -8.89601,0.60618 -0.63268,0.0965 -1.28109,0.13126 -1.8938,0.31616 -0.35431,0.10692 -0.68703,0.27538 -1.03054,0.41307 -0.36507,0.19184 -1.81057,0.9558 -2.14627,1.11352 -0.4826,0.22675 -0.98208,0.4162 -1.46595,0.64023 -1.91451,0.88636 -3.77817,1.87531 -5.68671,2.77494 -1.82509,0.95472 -3.85375,1.56649 -5.58601,2.69625 0.51763,0.47864 0.90063,1.16835 1.55289,1.43592 0.35722,0.14653 0.74199,-0.21559 1.10563,-0.34537 1.00026,-0.35697 4.05417,-1.57931 4.84153,-1.83226 0.66444,-0.21345 7.49362,-2.06825 7.88619,-2.17538 4.43324,-1.12992 8.84426,-2.37211 13.31548,-3.3492 3.92743,-0.85826 7.90838,-1.48368 11.866,-2.18312 2.62557,-0.60934 5.36679,-0.49055 7.99582,-1.00521 0.53583,-0.0226 1.13813,0.0857 1.66887,-0.0218 0.22381,-0.0453 1.63759,-0.39392 1.53288,-0.98657 -0.129,-0.73016 -0.71405,-1.29971 -1.07107,-1.94956 -0.73308,-0.20494 -1.45203,-0.46967 -2.19925,-0.61483 -3.88162,-0.7541 -7.92278,-0.77219 -11.85828,-0.80421 -5.90938,-0.0481 -4.79176,-0.0353 -10.08294,0.17825 -1.71763,0.11512 -4.77392,0.30979 -6.57674,0.46566 -1.93111,0.16697 -3.94608,0.30391 -5.74511,1.10895 -0.42719,0.19117 -0.81335,0.46324 -1.22003,0.69485 -2.09324,1.40241 -4.31136,2.60733 -6.61103,3.63287 -2.03492,0.87448 -4.05785,1.7884 -6.15024,2.51922 -2.71552,0.88261 -5.35369,1.9845 -7.95593,3.15489 -1.49103,0.90597 -3.22707,1.47148 -4.53587,2.64613 -0.42095,0.46999 -0.21379,0.25971 -0.61426,0.63787 -0.0944,0.11559 1.54024,1.45121 1.63469,1.33562 v 0 c 0.38751,-0.36384 0.19736,-0.19975 0.56617,-0.49719 0.5053,-0.33302 1.03131,-0.54092 1.58168,-0.79098 0.92447,-0.42003 1.82232,-0.8996 2.76695,-1.27566 1.21664,-0.51692 2.42409,-1.09191 3.66701,-1.54351 1.41571,-0.51437 2.87268,-0.92401 4.27102,-1.49023 0.49491,-0.21437 0.99752,-0.41177 1.48473,-0.64311 0.70451,-0.33453 1.36012,-0.76841 2.07265,-1.08549 0.82582,-0.36751 1.7074,-0.631 2.54561,-0.96858 2.38905,-0.96874 4.62606,-2.23483 6.74801,-3.69677 0.29745,-0.1302 0.5803,-0.30084 0.89235,-0.39059 0.99611,-0.28646 1.97258,-0.25996 3.00325,-0.28058 3.05548,-0.0611 6.1092,0.0445 9.16467,0.0541 7.29867,-0.0156 14.59579,-0.25745 21.89314,-0.40116 0.20366,-0.4233 0.41859,-0.84136 0.61097,-1.2699 0.006,-0.0124 -0.028,-0.005 -0.0408,-2.1e-4 -0.19147,0.0675 -0.37743,0.15018 -0.5697,0.21537 -0.16546,0.0561 -0.41982,-0.006 -0.50274,0.14824 -0.0192,0.0356 0.65751,-0.0118 0.33382,0.01 -0.78082,-0.33568 -1.55912,-0.3852 -2.42608,-0.46593 -2.51469,-0.23417 -5.05192,-0.1193 -7.55754,0.15518 -8.68565,1.12736 -17.31365,2.84567 -25.67746,5.47298 -4.40071,1.44346 -8.55259,2.78507 -12.44579,5.36235 -0.36425,0.24113 -1.05094,0.35478 -1.04442,0.79156 0.0103,0.69131 0.72177,1.17944 1.08265,1.76916 2.03324,-0.61755 4.03455,-1.36129 6.01378,-2.13265 0.65475,-0.30386 1.31965,-0.58677 1.96425,-0.9116 2.3773,-1.19797 4.62656,-2.64187 6.92648,-3.9771 0.16169,-0.0599 0.31381,-0.15965 0.48506,-0.1796 0.26029,-0.0303 0.5238,0.0184 0.7855,0.0316 0.39413,0.02 0.78807,0.0437 1.18195,0.0682 2.41409,0.15022 4.82951,0.26864 7.24897,0.29113 7.06357,0.10219 14.1278,0.13302 21.19143,0.22575 0.62371,-0.6731 1.40623,-1.22814 1.87112,-2.01931 0.10644,-0.18114 -0.41489,-0.0671 -0.6209,-0.10837 -1.28228,-0.25662 -1.09939,-0.28422 -2.54645,-0.45428 -1.74212,-0.20473 -2.29317,-0.16982 -4.18925,-0.22211 -1.82197,0.0833 -1.80792,0.0486 -3.61142,0.26601 -3.49066,0.42071 -6.92152,1.25046 -10.43192,1.53325 -4.05054,0.60184 -8.08135,1.24511 -12.07786,2.15087 -2.67583,0.60645 -4.01319,0.92484 -6.48455,1.87048 -0.54067,0.20688 -1.05336,0.4806 -1.58003,0.7209 -0.13525,0.0777 0.96395,1.99044 1.0992,1.91271 z" />
      <path
         style="opacity:0.52459;fill:#e6e6e6;stroke-width:1.965;stroke-linejoin:round;stroke-miterlimit:4;stroke-dasharray:none;paint-order:markers fill stroke"
         id="path897"
         d="m 104.82276,126.08025 c 3.88403,0.41855 7.80241,0.15983 11.68251,-0.16887 3.04185,-0.31015 6.08024,-0.80548 9.13897,-0.91058 2.61007,-0.0529 5.21343,0.16839 7.82212,0.21646 3.58972,-0.0197 7.17806,0.0597 10.76761,0.0185 2.8265,0.0646 5.64929,-0.17696 8.47355,-0.0692 4.60342,0.81594 9.18116,1.76703 13.81637,2.39033 3.26217,0.53723 6.4077,1.59123 9.59523,2.44506 1.20785,0.22005 2.38582,0.58432 3.5929,0.80701 0.51819,0.0956 1.04316,0.1503 1.56318,0.23538 1.49579,0.24472 2.98752,0.5136 4.48228,0.76448 4.47781,0.53895 8.97263,0.9085 13.42452,1.6464 0.89082,0.13638 1.97783,0.31602 2.87567,0.4004 0.4474,0.042 0.8978,0.0443 1.34568,0.081 1.80535,0.14793 3.60438,0.39971 5.4001,0.63095 4.31175,0.57695 8.58493,1.4027 12.89064,2.01856 2.20524,0.26394 4.40916,0.49225 6.60138,0.85168 4.12937,0.67934 8.26635,1.31943 12.40957,1.90887 3.09448,0.5906 6.22723,0.90219 9.36245,1.17069 3.23894,0.29702 6.48359,0.47708 9.71994,0.81106 0.76184,0.0924 1.52186,0.20141 2.28554,0.27713 7.47508,0.74114 -2.54193,-0.35619 4.49111,0.37353 1.81943,0.18878 3.63598,0.43325 5.44899,0.67521 2.03144,0.27278 4.03659,0.70466 6.06666,0.98594 3.37989,0.4683 -0.34962,-0.11539 3.08737,0.4411 1.28688,0.30227 2.65101,0.20821 3.92985,0.54709 0.23037,0.061 0.45487,0.14254 0.68231,0.21381 0.28408,0.0733 0.56817,0.14662 0.85225,0.21993 2.26621,0.6215 4.60796,0.61026 6.93512,0.58941 0.92909,-0.0229 0.50388,-0.007 1.2758,-0.042 0.10747,0.0324 0.56626,-1.48743 0.45879,-1.51987 v 0 c -0.76182,-0.11116 -0.34097,-0.0586 -1.26394,-0.14568 -2.23161,-0.11313 -4.47668,-0.10687 -6.691,-0.44541 -0.6169,-0.10331 -0.8953,-0.12719 -1.48196,-0.30876 -1.04373,-0.32301 -0.21791,-0.1709 -1.42248,-0.47919 -0.56777,-0.14531 -2.01498,-0.416 -2.52105,-0.51427 -3.05316,-0.45181 -6.12082,-0.80344 -9.14421,-1.43937 -4.06877,-0.73951 -8.15788,-1.42566 -12.30682,-1.45544 -3.26294,-0.23542 -6.52388,-0.52906 -9.79977,-0.50063 -3.07838,-0.3723 -6.10282,-1.06264 -9.17093,-1.50975 -4.1725,-0.57925 -8.30038,-1.51533 -12.52092,-1.72609 -0.88476,-0.0649 -1.83635,-0.14061 -2.72805,-0.18641 -0.29057,-0.0149 -0.58275,-0.004 -0.87227,-0.0324 -0.97661,-0.0974 -1.93696,-0.38413 -2.87779,-0.64189 -4.27935,-0.97572 -8.58609,-1.85214 -12.96136,-2.27454 -1.36664,-0.0862 -2.6556,-0.17228 -4.01863,-0.24179 -1.85714,-0.0947 -3.72736,-0.15095 -5.5453,-0.58823 -5.29458,-1.06896 2.58963,0.55183 -3.21709,-0.74762 -3.33796,-0.74698 -6.7636,-1.01341 -10.16166,-1.32783 -3.04901,-0.22491 -1.9247,-0.13254 -4.63138,-0.36354 -1.67237,-0.14273 -3.34575,-0.27235 -4.92996,-0.87883 -3.19184,-1.00456 -6.38089,-2.01616 -9.64267,-2.77622 -4.65465,-1.0513 -9.38238,-1.88982 -14.15108,-2.17284 -3.31637,-0.12433 0.93039,0.0204 -3.08431,-0.0592 -2.15076,-0.0427 -4.3021,-0.13777 -6.45429,-0.0723 -3.23228,-0.004 -6.46273,0.12165 -9.69464,0.0108 -2.96019,-0.0326 -5.92139,0.0188 -8.88157,0.0156 -3.12108,0.13766 -6.24681,0.18804 -9.36197,0.44799 -2.34444,0.1862 -4.68782,0.37644 -7.03165,0.5669 -6.57527,0.53428 2.24575,-0.21075 -3.19884,0.17685 -0.36997,0.0263 -0.73737,0.081 -1.10606,0.12151 -0.10883,0.0279 0.28636,1.56712 0.39519,1.53917 z" />
      <path
         style="opacity:0.52459;fill:#4d4d4d;stroke-width:1.965;stroke-linejoin:round;stroke-miterlimit:4;stroke-dasharray:none;paint-order:markers fill stroke"
         id="path901"
         d="m 99.996653,133.6951 c 1.195937,2.49533 2.853877,4.75949 4.610807,6.8875 0.61258,0.61777 2.32091,2.94267 2.52966,0.0731 0.0318,-0.43703 -0.46818,-0.74085 -0.70617,-1.10877 -0.35036,-0.54168 -0.70591,-1.07999 -1.05886,-1.61998 -1.24051,-1.84894 -2.60247,-3.61112 -4.10178,-5.2572 -0.71131,-0.78094 -1.447314,-1.5218 -2.281968,-2.16809 -1.864172,0.69682 -0.490234,1.45368 0.24671,1.1869 0.21811,-0.079 0.309036,-0.34601 0.463553,-0.51902 0.344615,-1.18237 -1.638176,-1.64427 -1.942632,-0.50265 -0.237736,0.89144 0.21481,1.64574 0.515345,2.43146 1.505524,2.78234 3.444572,5.32777 5.727432,7.51604 0.65199,0.61632 1.51423,1.00617 2.06126,1.72794 1.02794,1.68369 2.27365,2.8139 3.85308,3.97194 0.93048,0.56294 2.44851,1.90779 2.70085,-0.40868 0.04,-0.36695 -0.37439,-0.63706 -0.58481,-0.94032 -0.29912,-0.43111 -0.6283,-0.84056 -0.94244,-1.26084 -1.71108,-1.98805 -3.47671,-3.97704 -5.51144,-5.64495 -0.0828,-0.0759 -0.17876,-0.13953 -0.24846,-0.2276 -0.15415,-0.19474 -0.4353,-0.99417 -0.5374,-1.18224 -0.30009,-0.55272 -0.5216,-0.81365 -0.89962,-1.32627 -0.2209,0.53242 -0.71495,-1.34677 -1.02652,-0.98826 -0.42261,0.48627 -0.85224,1.14435 -0.75146,1.78066 0.10037,0.63374 0.8193,0.98917 1.26349,1.45219 1.25406,1.30721 1.93531,1.81622 3.31972,2.97963 2.63715,2.19835 5.43517,4.1946 8.35531,5.99757 0.57583,0.40951 1.28098,0.59255 1.74609,1.13806 0.52817,0.55161 1.09574,1.05775 1.6819,1.54641 0.19049,0.15882 0.38055,0.31836 0.57691,0.46985 0.0541,0.0417 0.13847,0.16771 0.17345,0.10905 0.20485,-0.34357 0.28641,-0.74699 0.42961,-1.12048 -2.75731,-1.20141 -5.58344,-2.23381 -8.41349,-3.24943 0.004,0.0804 -1.82812,-0.70078 -1.84136,-0.62336 -0.0258,0.15077 0.1601,0.26358 0.209,0.40851 0.0389,0.11525 0.0222,0.24232 0.0387,0.36283 -0.1791,0.0907 -0.46545,0.0847 -0.53728,0.27221 -0.0482,0.12591 0.25443,0.0921 0.3733,0.15575 0.24239,0.12978 0.47533,0.27673 0.70803,0.42317 1.25932,0.79251 2.46731,1.66386 3.69063,2.50995 1.65787,1.17617 3.27068,2.48166 5.10932,3.37702 0.34907,0.16999 0.71402,0.3052 1.07104,0.4578 1.51027,0.62182 3.03295,1.22705 4.51493,1.91489 1.85745,1.09762 3.88642,1.80794 5.91239,2.51831 0.4299,0.12108 0.85633,0.25521 1.28968,0.36325 0.91308,0.22764 2.36403,0.62449 1.69155,-1.39606 -0.1151,-0.34584 -0.6469,-0.33624 -0.97492,-0.49514 -0.49798,-0.24123 -1.00186,-0.47008 -1.50279,-0.70512 -3.05593,-1.33416 -6.23291,-2.36172 -9.30743,-3.64772 -0.25897,-0.13017 -0.52642,-0.24469 -0.77691,-0.39052 -0.34573,-0.20128 -0.93987,-0.67029 -1.25755,-0.89326 -0.68977,-0.48414 -1.41174,-0.8824 -2.15347,-1.27953 -0.25087,-0.10599 -0.4969,-0.22426 -0.75261,-0.31796 -0.22255,-0.0816 -0.45714,-0.12705 -0.68024,-0.20709 -1.03711,-0.37203 -2.04474,-0.87087 -3.04494,-1.33063 -0.12735,-0.0624 -0.25624,-0.25244 -0.38206,-0.18705 -0.10205,0.053 0.15152,0.21389 0.11847,0.32404 -0.0979,0.32638 -0.57239,0.5701 -0.48552,0.89959 0.0795,0.3017 0.55762,0.28014 0.83449,0.42397 1.33955,0.69588 2.46591,1.30609 3.83006,2.03626 5.71185,2.77428 11.69457,5.13387 17.97434,6.23759 0.81044,0.14244 1.6329,0.20503 2.44934,0.30755 1.83022,-0.003 4.23862,0.29257 5.62598,-1.20654 -0.14493,-0.4059 -0.14082,-0.90252 -0.4348,-1.2177 -0.29864,-0.32018 -0.79019,-0.37993 -1.19976,-0.53472 -0.68659,-0.25949 -1.38286,-0.49444 -2.08544,-0.70688 -2.60089,-0.7864 -3.09266,-0.81853 -5.78213,-1.4482 -1.13119,-0.26484 -2.25952,-0.54175 -3.38927,-0.81263 -3.0719,-0.7175 -6.18296,-1.2346 -9.30044,-1.70329 -1.3086,-0.19673 -2.64226,-0.31378 -3.93302,-0.60835 -1.18403,-0.33812 -1.88255,-1.25655 -2.63352,-2.15929 -0.26486,-0.12325 -0.3083,-0.47544 -0.53048,-0.64176 -0.0305,-0.0228 0.0327,0.0735 0.0268,0.11116 -0.0939,0.59229 -0.40813,0.8239 0.17155,1.21898 0.50233,0.34235 1.06532,0.58586 1.59798,0.8788 4.31772,2.31922 8.86241,4.24983 13.54543,5.70404 0.8301,0.25777 1.67156,0.47743 2.50734,0.71615 1.47381,0.28084 2.37096,0.53648 3.83416,0.53471 0.90235,-0.001 2.3013,-0.002 2.80353,-0.99598 0.107,-0.21169 0.0987,-0.464 0.14811,-0.696 -0.0702,-0.21197 -0.0808,-0.45426 -0.21065,-0.63592 -0.58357,-0.81641 -2.40416,-1.34838 -3.21747,-1.58601 -1.97193,-0.57615 -3.23572,-0.76003 -5.30016,-1.15421 -1.15095,-0.2378 -2.30287,-0.4709 -3.45284,-0.7134 -2.4137,-0.509 -4.83036,-1.0044 -7.23966,-1.53386 -1.48693,-0.32677 -3.64779,-0.79729 -5.13668,-1.35011 -0.54417,-0.20205 -1.05216,-0.49065 -1.57825,-0.73597 -0.37682,-0.29103 -1.47341,-0.66585 -1.58098,-1.31917 -6e-5,-2.6e-4 0.20606,-0.0342 0.34441,-0.0899 0.43735,-0.25055 0.88462,0.19746 1.27192,0.34426 0.52934,0.20064 1.07637,0.35111 1.61456,0.52667 0.78099,0.29678 1.56199,0.59356 2.34299,0.89034 5.61018,2.11287 11.34704,3.9366 17.24637,5.05169 1.0277,0.19426 2.06525,0.33216 3.09788,0.49825 2.17738,0.18316 2.44961,0.30081 4.44253,0.16807 0.56182,-0.0374 1.12862,-0.0676 1.67871,-0.18778 0.31904,-0.0697 1.0281,-0.48883 1.01497,-0.91876 -0.0114,-0.37174 -0.29726,-0.68186 -0.44588,-1.02279 -0.44592,-0.1486 -0.87829,-0.34673 -1.33776,-0.4458 -0.60462,-0.13038 -1.22451,-0.1787 -1.84004,-0.23943 -1.8751,-0.18502 -4.02144,-0.2632 -5.87608,-0.39681 -2.70849,-0.19513 -4.80025,-0.40479 -7.50398,-0.65714 -1.1695,-0.14616 -2.3431,-0.26252 -3.50849,-0.4385 -1.06603,-0.16099 -2.12539,-0.36466 -3.18337,-0.57206 -2.48442,-0.48704 -4.99223,-1.05926 -7.3598,-1.96917 -0.21037,-0.12695 -0.7437,-0.25967 -0.88398,-0.54728 -0.033,-0.10146 -1.46789,0.36542 -1.43488,0.46688 v 0 c 0.30627,0.80409 0.50097,1.01417 1.22216,1.53871 0.89894,0.56362 1.39989,0.91636 2.42788,1.36008 3.72685,1.60869 7.77087,2.35344 11.76333,2.92957 1.27887,0.12967 2.55429,0.29955 3.8366,0.38901 3.36687,0.2349 4.06695,0.16057 7.31338,0.0388 0.85782,-0.0322 1.71506,-0.0789 2.57287,-0.11132 0.6044,-0.0229 1.21067,-0.008 1.81366,-0.0547 0.32825,-0.0257 0.64945,-0.10889 0.97417,-0.16333 0.035,-0.22399 0.0312,-0.45762 0.10501,-0.67197 0.0348,-0.10114 0.27564,-0.1582 0.21,-0.24265 -0.0854,-0.10981 -0.27809,-0.0105 -0.4166,-0.0231 -0.18518,-0.0169 -0.36932,-0.0437 -0.55401,-0.0653 -2.44052,-0.28518 -1.06352,-0.0969 -3.99846,-0.57918 -0.98097,-0.20319 -1.96554,-0.38971 -2.9429,-0.60959 -5.81494,-1.3082 -11.50977,-3.08978 -17.25955,-4.64692 -0.85813,-0.21414 -1.71251,-0.44394 -2.57439,-0.64243 -0.60103,-0.13842 -1.20251,-0.2825 -1.81331,-0.36806 -1.07659,-0.15082 -2.09693,-0.2922 -3.04635,0.26942 -0.12883,0.10121 -0.27937,0.17966 -0.38647,0.30363 -0.79151,0.91607 -0.4603,2.07502 0.27897,2.91917 0.31079,0.35489 0.69583,0.63715 1.04374,0.95572 0.55916,0.35173 1.09348,0.74646 1.67749,1.0552 1.69639,0.89683 3.30255,1.43503 5.16573,1.94727 3.58128,0.9846 7.26141,1.60087 10.9416,2.0648 2.51695,0.28574 2.9692,0.33015 5.35244,0.62473 0.55756,0.0689 1.11695,0.12571 1.67179,0.21387 0.276,0.0439 0.54049,0.15267 0.81843,0.18181 0.11917,0.0125 0.24796,-0.0707 0.34908,-0.12771 0.21776,-0.25449 -0.001,-0.0602 -0.37386,-0.0629 -0.13123,-0.001 -0.26046,-0.0331 -0.38984,-0.0551 -1.92073,-0.32645 -1.21121,-0.19628 -3.38656,-0.76658 -0.79058,-0.24564 -1.58927,-0.46653 -2.37172,-0.73691 -0.85434,-0.29521 -1.69333,-0.63322 -2.53644,-0.9591 -3.70061,-1.43039 -7.36446,-2.95014 -11.07094,-4.36359 -0.51093,-0.18318 -2.89615,-1.13283 -3.56252,-1.02199 -1.48644,0.24724 -0.77022,1.51215 -0.28978,2.09175 0.86076,1.10875 1.76643,2.17645 3.09627,2.73455 0.26725,0.13918 0.52463,0.29919 0.80173,0.41754 1.7794,0.75995 3.72791,1.16901 5.60148,1.59847 1.03381,0.23697 2.0687,0.46954 3.10615,0.69003 1.15286,0.24501 2.30969,0.47095 3.46453,0.70643 3.11238,0.58771 6.21198,1.23865 9.33599,1.76227 0.74241,0.12444 1.48439,0.25338 2.23052,0.35304 0.42676,0.057 0.92671,0.35339 1.28636,0.1167 0.28719,-0.18902 0.0644,-0.68461 0.0966,-1.02692 -1.19871,0.37816 -2.35433,0.34096 -3.58193,0.0276 -1.58498,-0.42806 -3.7502,-1.00268 -5.25433,-1.46148 -2.52732,-0.77091 -5.17599,-1.70516 -7.67911,-2.52975 -1.30659,-0.43043 -2.62789,-0.81664 -3.92694,-1.26931 -1.04218,-0.36316 -2.063,-0.78492 -3.09451,-1.17739 -0.85921,-0.3145 -1.71865,-0.62841 -2.57765,-0.9435 -0.57188,-0.20977 -1.13511,-0.44455 -1.71498,-0.6311 -0.42373,-0.13632 -0.85438,-0.4162 -1.29227,-0.33639 -1.0134,0.1847 -1.76902,0.57722 -1.23982,1.39897 0.11814,0.18346 0.32205,0.2945 0.48307,0.44175 1.43906,0.74308 2.96253,1.25029 4.46791,1.83402 0.69028,0.32866 1.34597,0.67535 1.97402,1.11506 0.46917,0.32848 0.8949,0.71634 1.36457,1.04411 0.258,0.18005 0.53357,0.33349 0.80036,0.50024 0.97232,0.54915 1.13012,0.6646 2.21076,1.15113 0.50893,0.22913 1.03075,0.42859 1.54298,0.65023 1.81832,0.78674 3.62511,1.61169 5.54393,2.13536 0.54965,0.16318 1.096,0.33797 1.64896,0.48954 0.32582,0.0893 0.67334,0.35983 0.98639,0.23285 2.32137,-0.94161 1.05474,-1.27277 0.13737,-1.56609 -0.40837,-0.13056 -0.82114,-0.24696 -1.23171,-0.37044 -2.01063,-0.59357 -4.03339,-1.21425 -5.92082,-2.13754 -1.48179,-0.72416 -2.91255,-1.55555 -4.46283,-2.13324 -0.38724,-0.15149 -1.52874,-0.58224 -1.90674,-0.79103 -1.36145,-0.75203 -2.54815,-2.16532 -3.86776,-2.992 -1.31091,-0.90651 -2.60216,-1.77908 -4.05419,-2.44894 -0.19323,-0.0891 -1.27478,-0.57688 -1.64285,-0.56273 -0.35966,0.0138 -0.70427,0.14895 -1.05641,0.22342 -0.0675,0.0873 -0.16352,0.15856 -0.2024,0.26177 -0.44475,1.18081 1.08207,1.70772 1.84068,2.14656 2.9123,1.32074 5.93378,2.49022 9.08022,3.10425 0.43687,-0.37009 0.98933,-0.63636 1.31063,-1.11027 0.10056,-0.14835 -0.11768,-0.3456 -0.22774,-0.48704 -0.61129,-0.78557 -1.59158,-1.2134 -2.33676,-1.84738 -0.55841,-0.50802 -1.1706,-0.95306 -1.73395,-1.45785 -2.59811,-2.12623 -5.18892,-4.26096 -7.88429,-6.26497 -0.44119,-0.36833 -2.91825,-2.44016 -3.36122,-2.79453 -0.45767,-0.36614 -0.82851,-0.92199 -1.3958,-1.0693 -0.65305,-0.16957 -1.37853,-0.0382 -2.01578,0.18344 -0.38232,0.13298 1.38438,0.80928 0.83639,0.88041 0.40201,0.47887 0.86221,0.98128 1.16424,1.53503 0.8053,1.47644 -0.52744,-0.67719 0.43651,0.92523 0.0774,0.1286 0.17049,0.24703 0.25574,0.37055 0.30341,0.37294 0.58915,0.76003 0.89305,1.13257 1.32587,1.62535 2.80833,3.11641 4.23051,4.65552 0.36838,0.36387 0.73013,0.73458 1.10515,1.0916 0.21851,0.20803 0.37322,0.60513 0.67491,0.60305 2.79374,-0.0193 0.40075,-1.21157 -0.002,-1.50445 -1.38378,-1.05434 -2.78827,-2.11054 -3.85575,-3.5031 -0.57577,-0.70966 -1.25785,-1.32265 -1.91826,-1.95226 -1.8832,-2.33954 -3.61064,-4.80048 -5.42777,-7.19078 -0.200576,-0.30126 -0.368835,-0.62674 -0.601727,-0.90377 -0.378859,-0.45067 -0.191233,-0.0659 -0.509174,-0.0788 -0.745702,-0.0304 -0.58801,-0.16369 -0.521396,-0.73816 0.715589,-0.6319 2.64e-4,-0.17618 0.883586,-0.24369 0.08442,-0.006 -0.149653,-0.0799 -0.22816,-0.11162 -0.146984,-0.0594 -0.312365,-0.24423 -0.447395,-0.1612 -1.127358,0.69323 -1.058966,0.65103 -0.888524,1.28887 0.533194,0.83683 1.156356,1.62541 1.752957,2.41701 1.323013,1.75545 2.646013,3.51344 4.062013,5.19567 0.43651,0.50748 0.85908,1.02728 1.30952,1.52243 0.29969,0.32943 0.50388,0.85762 0.93957,0.94986 2.68433,0.56831 1.61114,-0.56056 1.10435,-1.18 -0.20821,-0.25448 -0.41,-0.51415 -0.615,-0.77123 -1.57082,-2.17975 -3.15125,-4.3563 -4.81521,-6.46572 -0.0416,-0.10136 -1.475031,0.48697 -1.43343,0.58833 z" />
      <path
         style="opacity:0.52459;fill:#e6e6e6;stroke-width:1.965;stroke-linejoin:round;stroke-miterlimit:4;stroke-dasharray:none;paint-order:markers fill stroke"
         id="path903"
         d="m 244.76389,137.0057 c 2.63712,0.27734 5.30814,0.46206 7.95859,0.25449 0.36974,-0.029 1.10248,0.20953 1.10084,-0.16133 -0.004,-0.86064 -0.74122,-1.55354 -1.11184,-2.33031 -6.72411,-0.63353 -13.48699,-0.63605 -20.23406,-0.56832 -2.49265,-0.0679 -5.07044,0.16525 -7.50555,-0.51752 -0.50535,-0.14169 -0.9615,-0.37899 -1.43607,-0.59769 -1.38102,-0.45492 -3.21908,-1.08134 -4.69273,-0.82296 -0.37772,0.0662 -0.74114,0.19736 -1.11171,0.29604 0.15771,0.70518 0.0632,1.52047 0.47315,2.11553 0.41606,0.60392 4.43767,2.08801 4.46276,2.09694 1.83582,0.65361 5.28517,1.61709 7.10657,2.01621 1.33268,0.29202 2.68508,0.48539 4.02761,0.72809 4.58031,0.74598 9.24069,0.50827 13.82227,1.20854 2.58392,0.39545 5.05126,1.29497 7.59874,1.84447 3.46382,0.74717 4.23231,0.74022 7.86024,1.15743 1.28713,0.0829 6.2259,0.41403 7.61613,0.45383 0.88151,0.0252 1.77218,0.10385 2.64554,-0.0183 0.38973,-0.0545 1.17806,-0.12304 1.06895,-0.50113 -0.89186,-3.09022 -2.87621,-2.60753 -5.3943,-3.01724 -1.50649,-0.17922 -3.01064,-0.37892 -4.51941,-0.53766 -0.9972,-0.10493 -8.39715,-0.76667 -9.44649,-0.8563 -2.94495,-0.25153 -5.88276,-0.48015 -8.83634,-0.58205 -0.28943,0.0144 -0.58431,-0.0146 -0.86831,0.0431 -0.0534,0.0109 -0.0817,0.0942 -0.0705,0.14753 0.10626,0.50884 0.0944,1.09411 0.41521,1.50314 0.0931,0.11873 0.85298,-1.18092 0.93055,-1.27919 4.21071,0.0294 8.40537,0.58277 12.58213,1.07283 4.01095,0.53871 8.01951,1.1154 12.00319,1.83221 3.06906,0.55224 0.56986,0.17165 3.24223,0.55309 1.80898,0.20991 3.56348,0.70475 5.37913,0.88467 0.39249,0.0389 0.79039,0.11985 1.18132,0.0675 0.40219,-0.0539 0.77086,-0.25376 1.15628,-0.38064 -0.60357,-0.82384 -0.94634,-1.92753 -1.81065,-2.47154 -1.06929,-0.67303 -2.43488,-0.67779 -3.66318,-0.97375 -1.81735,-0.43789 -3.63932,-0.85957 -5.47214,-1.22742 -3.44689,-0.69178 -9.34109,-1.66972 -12.81198,-2.13778 -1.91209,-0.25785 -3.8341,-0.43591 -5.75115,-0.65387 -2.72358,-0.12376 -5.42682,-0.49109 -8.14361,-0.69434 -1.56792,-0.1173 -3.14585,-0.0881 -4.7108,-0.23994 -1.18745,-0.11525 -2.5443,-0.40754 -3.71308,-0.63459 -3.81959,-0.99679 -7.68211,-1.72896 -11.63386,-1.81641 -1.49732,0.031 -2.912,-0.37714 -4.34735,-0.73273 -1.29393,-0.32056 -2.13119,-0.48961 -3.44118,-0.77125 -0.56397,-0.10124 -1.12794,-0.20249 -1.69191,-0.30373 -0.58737,-0.0864 -1.17715,-0.15773 -1.76211,-0.25916 -4.23139,-0.73371 0.0945,-0.11382 -4.73128,-0.85053 -4.69776,-0.71715 -0.50453,0.048 -5.22509,-0.86918 -2.9768,-0.57016 -5.95241,-1.22242 -8.9802,-1.45145 -1.46555,0.0799 -2.73681,-0.52709 -4.09935,-0.95987 -0.43903,-0.13944 -0.88404,-0.25933 -1.32606,-0.38899 -2.17411,-0.61981 -4.36356,-1.31642 -6.64323,-1.32489 -1.09357,-0.0415 -2.15752,-0.41713 -3.17966,-0.78127 -2.63313,-0.83877 -5.33386,-1.50071 -8.07402,-1.86624 -2.54883,-0.0795 -5.00466,-0.79735 -7.49006,-1.28794 -0.96671,-0.19081 -1.93816,-0.35678 -2.90724,-0.53517 -1.07207,-0.17842 -2.1427,-0.36576 -3.21621,-0.53527 -0.98413,-0.15538 -1.97159,-0.28892 -2.95648,-0.43936 -1.91172,-0.29199 -3.82194,-0.6631 -5.75351,-0.80207 -0.84898,-0.0438 -1.83764,-0.21857 -0.95042,2.0932 0.24256,0.63201 1.14478,0.7342 1.76661,1.00178 0.90461,0.38926 1.84894,0.68331 2.79389,0.96065 3.38777,0.9943 5.32197,1.30409 8.8738,2.03111 4.1581,0.62547 8.37108,1.32901 12.5961,1.20185 0.5719,-0.0172 1.30696,0.19279 1.7022,-0.22092 2.36798,-2.47867 -0.12917,-2.61396 -1.65542,-3.2532 -1.42107,-0.39801 -2.82589,-0.85938 -4.26319,-1.19403 -1.83094,-0.42631 -3.68146,-0.76738 -5.53399,-1.08709 -4.80619,-0.82944 -9.67754,-1.4421 -14.55745,-1.5769 -0.85437,-0.0236 -1.70932,0.0148 -2.56399,0.0222 -0.1994,0.46265 -2.4125,-0.26445 -2.92165,0.58861 -0.79453,1.3312 -0.38349,2.1424 0.90474,2.5708 -0.0432,-0.55823 0.0883,-1.15897 -0.12965,-1.6747 -0.0794,-0.18793 -0.40609,-0.0413 -0.608,-0.0707 -0.80831,-0.11743 1.15116,-0.0247 -1.077,-0.11213 -0.1916,-0.008 -0.58208,-0.18411 -0.57522,0.008 0.0254,0.70858 0.43204,1.35065 0.64806,2.02598 7.88032,1.0343 15.82698,1.3936 23.74455,2.04313 2.99793,0.28747 6.01133,0.52076 8.97148,1.10144 0.99842,0.19586 1.90809,0.44411 2.81602,0.88775 2.15873,1.53755 4.60788,2.56494 7.07684,3.48633 2.71473,0.99535 5.55707,1.62923 8.42296,1.99708 0.847,0.10872 1.69947,0.2027 2.5534,0.20772 0.30557,0.002 0.87871,0.11755 0.89736,-0.18746 0.0467,-0.76419 -0.50216,-1.44655 -0.75325,-2.16982 -0.55275,-0.14613 -1.09524,-0.33889 -1.65826,-0.43839 -0.97349,-0.17206 -5.32954,-0.65675 -6.26152,-0.7584 -2.72779,-0.29752 -5.43757,-0.54756 -8.17906,-0.6538 -1.20624,-0.17713 -2.48104,7.9e-4 -3.63142,-0.4792 -0.90877,-0.37928 -1.77672,-0.9306 -2.65996,-1.36902 -1.94682,-0.82945 -3.96891,-1.61344 -6.04565,-2.05979 -0.0837,0.67087 -0.58877,1.42693 -0.25106,2.01261 0.30276,0.52508 1.15073,0.38182 1.73157,0.55502 1.00789,0.30054 2.01864,0.59202 3.03407,0.86605 4.36891,1.17901 8.78392,2.09847 13.20988,3.03198 2.69663,0.45324 5.39065,1.16434 8.14278,1.21189 0.22513,0.004 0.57693,0.1342 0.67186,-0.07 0.30475,-0.65539 0.23687,-1.42602 0.35531,-2.13903 -0.13825,-0.0706 -1.13662,1.88454 -0.99837,1.95514 v 0 c 0.51042,-0.60754 1.19026,-1.10613 1.53126,-1.82261 0.0862,-0.18117 -0.33191,-0.23125 -0.51759,-0.30727 -0.47529,-0.1946 -0.96709,-0.34696 -1.45698,-0.50119 -2.17512,-0.68481 -3.8751,-1.12571 -6.13028,-1.74658 -1.46142,-0.34905 -2.91481,-0.73364 -4.38427,-1.04713 -3.35546,-0.71584 -5.72404,-1.07503 -9.09713,-1.54289 -1.09327,-0.15165 -2.18747,-0.29947 -3.28535,-0.41305 -0.7043,-0.0729 -1.47914,-0.44898 -2.11913,-0.14609 -0.75269,0.35622 -1.07293,1.27379 -1.60939,1.91069 1.77302,1.06568 3.87587,1.41885 5.79478,2.13671 0.60737,0.3172 1.23105,0.60253 1.83785,0.92082 0.94397,0.49515 1.04817,0.67575 2.07514,1.04797 0.84952,0.30791 2.03881,0.50756 2.88311,0.6799 2.88997,0.43775 1.61243,0.26214 4.89781,0.67182 4.21397,0.52546 8.44938,1.09829 12.70604,0.73455 0.35267,-0.7265 0.96663,-1.37711 1.05801,-2.1795 0.0338,-0.29669 -0.46756,-0.40092 -0.75484,-0.4824 -0.78229,-0.22189 -1.60013,-0.29198 -2.40413,-0.41359 -2.74458,-0.41515 -5.53219,-0.62808 -8.21463,-1.38834 -1.62485,-0.51077 -1.93436,-0.59054 -3.49151,-1.14456 -0.93454,-0.33251 -1.98858,-0.6779 -2.85657,-1.18212 -0.21577,-0.12534 -0.40757,-0.28802 -0.61135,-0.43204 -3.3962,-2.71843 -7.89729,-3.16886 -12.03705,-3.90365 -1.49355,-0.19261 -2.98326,-0.41787 -4.48067,-0.57782 -6.38931,-0.68252 -12.85106,-0.91573 -19.25911,-0.32522 -0.66262,0.0611 -1.31355,0.21396 -1.97032,0.32093 -0.2239,0.71372 -0.65309,1.39337 -0.6717,2.14115 -0.005,0.20974 0.40672,0.10902 0.61509,0.13345 0.45084,0.0529 2.07423,0.0709 2.34626,0.0618 0.26598,-0.009 0.62201,0.11475 0.79344,-0.0888 0.42316,-0.50245 0.53244,-1.20109 0.79865,-1.80164 -0.10758,-0.0995 -0.45273,-0.47092 -0.64666,-0.43814 -0.0931,0.0157 -0.0784,0.17189 -0.12292,0.25515 -0.76978,1.44027 -0.8223,0.90984 0.42745,1.29465 1.95033,0.35779 3.89302,0.75688 5.84517,1.10462 6.88272,1.22601 13.82763,2.12775 20.8073,2.56005 1.21003,-0.0165 3.53512,0.50357 3.58115,-1.83999 0.009,-0.48133 -0.92656,-0.26638 -1.39918,-0.35803 -4.01055,-0.77778 -8.08831,-1.19079 -12.12115,-1.82377 -3.00019,-0.38991 -6.0069,-0.73048 -9.00312,-1.1498 -0.92647,-0.12967 -1.84695,-0.299 -2.77042,-0.44858 -0.53268,-0.0863 -1.08845,-0.43658 -1.59801,-0.25898 -3.197,1.11426 -0.8396,1.47449 -1.61187,1.35215 3.58792,1.90537 7.82015,2.22784 11.76322,2.81223 0.99674,0.10768 1.99221,0.22781 2.99022,0.32303 1.34797,0.12862 2.70759,0.14786 4.04808,0.33932 1.19672,0.17093 2.37288,0.54873 3.59703,0.54522 2.6523,0.42723 5.2893,0.9543 7.88999,1.62786 1.24079,0.27628 2.49022,0.47284 3.71249,0.819 2.07751,0.0364 4.00795,1.04524 6.03387,1.41127 1.5231,0.43252 3.09409,0.97955 4.67501,1.15143 0.17687,0.0192 0.35641,-0.002 0.53352,0.0147 0.19538,0.0185 0.38779,0.0607 0.58168,0.0911 0.57071,0.11229 1.14881,0.18477 1.71913,0.29902 2.31624,0.46397 4.52282,1.40489 6.84913,1.84013 2.45836,0.46152 2.93186,0.5947 5.3772,0.88449 2.71982,0.32233 5.48144,0.41185 8.1572,1.03876 2.68924,0.52204 5.39065,0.97969 8.09815,1.384 1.7515,0.27964 0.80721,0.14134 2.83463,0.40285 2.84096,0.42943 5.6568,1.034 8.47663,1.57831 1.92879,0.40224 3.86884,0.69514 5.80329,1.0645 3.44463,0.65769 6.88703,1.32925 10.32929,2.00077 6.15418,1.0433 12.31979,2.07005 18.52672,2.75638 1.91519,0.21178 3.83635,0.36921 5.75818,0.50834 1.26791,0.0918 2.57903,0.50471 3.80918,0.18427 0.79065,-0.20596 1.20904,-1.0993 1.81356,-1.64895 0.26527,-0.0738 0.96192,-0.002 0.79584,-0.2215 -0.22315,-0.29511 -0.72953,-0.12451 -1.09598,-0.17545 -1.75678,-0.2442 -3.53462,-0.37952 -5.2613,-0.8077 -0.80851,-0.2032 -2.2984,-0.57215 -3.03408,-0.78432 -2.29134,-0.66086 -2.21625,-0.77667 -4.78147,-1.36606 -1.1322,-0.26014 -2.27354,-0.48129 -3.41821,-0.67954 -1.26949,-0.21985 -2.54816,-0.38294 -3.82224,-0.57442 -3.91998,-0.42871 -4.48017,-0.61349 -8.6034,-0.51148 -1.53114,0.0379 -4.82141,0.24381 -6.30337,1.09418 -0.28742,0.16493 -0.50086,0.43404 -0.75129,0.65105 -0.58977,0.97279 -0.51759,1.00148 -0.44328,2.53132 0.004,0.0844 0.0647,0.16881 0.13631,0.21369 0.23882,0.14973 0.51215,0.23561 0.76823,0.35342 4.33737,1.27278 8.78221,1.81855 13.27781,2.21457 1.61104,0.14193 3.22321,0.27777 4.83826,0.36265 1.54872,0.0814 3.10039,0.0907 4.65059,0.13606 4.80515,-0.0615 2.61371,0.8097 5.7182,-2.13338 0.17391,-0.16488 0.79169,-0.34332 0.57102,-0.43682 -0.78181,-0.33126 -1.67404,-0.29118 -2.51761,-0.38795 -0.28369,-0.0325 -7.39282,-0.63799 -7.49596,-0.64681 -3.52165,-0.21986 -7.09537,-0.32817 -10.58866,-0.86878 -0.23999,-0.0371 -3.12285,-0.66189 -3.51785,-0.73689 -0.51408,-0.0976 -1.03194,-0.17421 -1.54791,-0.26131 -2.32043,-0.45455 -4.64911,-0.95304 -6.98955,-1.29009 -0.9726,-0.14007 -1.95295,-0.22184 -2.92595,-0.35908 -1.1709,-0.16515 -2.33659,-0.3653 -3.50488,-0.54795 -2.85142,-0.45805 -4.88073,-0.73988 -7.69695,-1.36647 -1.10334,-0.24548 -2.18608,-0.57687 -3.28623,-0.83625 -0.95149,-0.22433 -1.91561,-0.39246 -2.8676,-0.61464 -0.56659,-0.13222 -1.14128,-0.65029 -1.6869,-0.44828 -0.49903,0.18476 -0.54201,0.9159 -0.81301,1.37385 -0.18598,0.0284 -0.58426,-0.10119 -0.55794,0.0851 0.027,0.19082 0.38422,0.0305 0.57636,0.0453 1.14035,0.0881 2.28517,0.18729 3.38747,0.51476 1.02002,0.4527 0.49262,0.17896 1.5674,0.8491 2.34869,1.13685 5.22885,1.47544 7.77095,1.71916 1.22909,0.057 2.45707,0.14815 3.68727,0.17096 5.62144,0.10421 11.25654,-0.16544 16.85857,-0.60533 0.36953,-0.77677 1.1345,-1.47051 1.10859,-2.33031 -0.012,-0.39803 -0.7866,-0.13144 -1.18369,-0.16133 -2.60729,-0.19629 -5.23521,-0.0407 -7.8279,0.25449 -0.15205,0.039 0.40005,2.18935 0.5521,2.15031 z" />
    </g>
  </g>
</svg>
