<?xml version="1.0" encoding="UTF-8" standalone="no"?>
<svg
   xmlns:dc="http://purl.org/dc/elements/1.1/"
   xmlns:cc="http://creativecommons.org/ns#"
   xmlns:rdf="http://www.w3.org/1999/02/22-rdf-syntax-ns#"
   xmlns:svg="http://www.w3.org/2000/svg"
   xmlns="http://www.w3.org/2000/svg"
   xmlns:sodipodi="http://sodipodi.sourceforge.net/DTD/sodipodi-0.dtd"
   xmlns:inkscape="http://www.inkscape.org/namespaces/inkscape"
   width="500mm"
   height="500mm"
   viewBox="0 0 500 500"
   version="1.1"
   id="svg8"
   inkscape:version="1.0.2 (e86c870879, 2021-01-15, custom)"
   sodipodi:docname="astronaut.svg">
  <defs
     id="defs2" />
  <sodipodi:namedview
     id="base"
     pagecolor="#ffffff"
     bordercolor="#666666"
     borderopacity="1.0"
     inkscape:pageopacity="0.0"
     inkscape:pageshadow="2"
     inkscape:zoom="0.14770254"
     inkscape:cx="3398.9275"
     inkscape:cy="1845.0645"
     inkscape:document-units="mm"
     inkscape:current-layer="layer1"
     inkscape:document-rotation="0"
     showgrid="false"
     inkscape:window-width="1920"
     inkscape:window-height="1001"
     inkscape:window-x="-9"
     inkscape:window-y="-9"
     inkscape:window-maximized="1" />
  <metadata
     id="metadata5">
    <rdf:RDF>
      <cc:Work
         rdf:about="">
        <dc:format>image/svg+xml</dc:format>
        <dc:type
           rdf:resource="http://purl.org/dc/dcmitype/StillImage" />
        <dc:title></dc:title>
      </cc:Work>
    </rdf:RDF>
  </metadata>
  <g
     inkscape:label="Layer 1"
     inkscape:groupmode="layer"
     id="layer1">
    <g
       id="g1072"
       transform="translate(1.7913256,14.330604)">
      <path
         id="path892"
         style="fill:#c8c4b7;stroke:#000000;stroke-width:3.765;stroke-linecap:butt;stroke-linejoin:miter;stroke-miterlimit:4;stroke-dasharray:none;stroke-opacity:1"
         d="m 199.81537,321.41459 c 10.69444,28.84152 20.08115,59.02295 45.57693,78.67758 20.74875,19.82741 56.21581,4.01292 65.09362,-20.80454 9.32153,-9.34406 21.78992,-7.86172 4.77707,-15.56703 -12.44864,-16.77749 -29.43396,-36.52298 -45.14807,-9.68956 20.44772,-4.40995 2.47274,-32.8447 21.50893,-15.71638 13.23428,20.40836 34.63206,38.42557 59.81445,32.46495 19.82633,-5.10241 20.52563,-29.16296 40.4426,-35.53812 11.74859,-26.47801 -14.56839,-54.53442 -33.99694,-37.63723 3.58537,11.3965 7.80092,32.1436 -1.09894,9.54875 -7.11272,-11.4015 -11.51245,-25.885 -21.43721,-34.82144" />
      <path
         id="path868"
         style="fill:#ffd42a;stroke:#000000;stroke-width:3.765;stroke-linecap:butt;stroke-linejoin:miter;stroke-miterlimit:4;stroke-dasharray:none;stroke-opacity:1"
         d="m 168.78224,72.199531 c -26.66862,2.924422 -47.46187,30.434399 -43.57288,56.645059 2.66778,25.49349 20.26107,47.68742 46.13306,52.41421 26.14955,8.59977 56.76902,5.97405 75.58709,-16.28568 8.41423,-16.84979 -12.03807,-37.38352 -2.10037,-57.11362 -8.75428,-24.99007 -36.34066,-42.690345 -62.86511,-36.720573 -4.39393,0.353534 -8.78786,0.707069 -13.18179,1.060604 z" />
      <path
         id="path870"
         style="fill:#ac9d93;stroke:#000000;stroke-width:3.765;stroke-linecap:butt;stroke-linejoin:miter;stroke-miterlimit:4;stroke-dasharray:none;stroke-opacity:1"
         d="m 125.16887,107.47953 c -1.19368,-28.10125 22.51066,-48.50198 46.64134,-57.341878 25.38514,-1.783688 53.1391,-3.703169 72.78259,15.587234 10.24727,7.623029 31.93146,39.134604 6.56197,38.824104 -9.16391,14.9079 -14.20858,-22.797684 -27.58956,-25.066173 -25.8954,-15.507185 -65.5244,-12.298931 -86.28041,10.039438 -3.92293,6.445633 -7.60061,13.009865 -12.11593,19.076855" />
      <path
         id="path872"
         style="fill:#917c6f;stroke:#000000;stroke-width:3.765;stroke-linecap:butt;stroke-linejoin:miter;stroke-miterlimit:4;stroke-dasharray:none;stroke-opacity:1"
         d="m 168.78224,72.199531 c -1.13976,-26.280698 39.35599,-45.061052 50.79238,-21.942494 -23.21588,4.176114 -19.07496,47.111172 -50.79238,21.942494 z" />
      <path
         id="path874"
         style="fill:#6c5d53;stroke:#000000;stroke-width:3.765;stroke-linecap:butt;stroke-linejoin:miter;stroke-miterlimit:4;stroke-dasharray:none;stroke-opacity:1"
         d="m 151.04902,173.84887 c 3.2791,34.02025 51.31562,26.95514 74.25311,19.9982 12.09371,-8.46179 42.67866,-28.92084 32.56837,-38.20251 -19.28943,18.64024 -44.99564,38.0442 -75.01305,28.46 -11.13398,-1.4082 -21.35539,-6.46648 -31.80843,-10.25569 z" />
      <path
         id="path906"
         style="fill:#c8c4b7;stroke:#000000;stroke-width:3.765;stroke-linecap:butt;stroke-linejoin:miter;stroke-miterlimit:4;stroke-dasharray:none;stroke-opacity:1"
         d="m 271.49778,131.43851 c 26.73615,-4.798 57.26748,-7.92622 71.03513,20.97258 17.38579,25.64935 26.53039,55.93194 44.22232,81.43676 -17.96938,9.15735 -44.02688,-19.56224 -63.97268,-26.94247 -12.53441,-16.26059 -57.18299,-6.63861 -39.98923,-32.79485 4.85235,-16.76873 -10.79413,-29.0819 -11.29554,-42.67202 z" />
      <path
         id="path876"
         style="fill:#c8c4b7;stroke:#000000;stroke-width:3.765;stroke-linecap:butt;stroke-linejoin:miter;stroke-miterlimit:4;stroke-dasharray:none;stroke-opacity:1"
         d="m 263.32486,102.32947 c 15.9664,11.77265 18.95606,52.92503 -6.93366,53.79327 -19.83727,-4.04852 -19.37896,-58.167615 6.93366,-53.79327 z" />
      <path
         id="path878"
         style="fill:#c8beb7;stroke:#000000;stroke-width:3.765;stroke-linecap:butt;stroke-linejoin:miter;stroke-miterlimit:4;stroke-dasharray:none;stroke-opacity:1"
         d="m 151.04902,173.84887 c -30.644,14.37004 -0.31443,61.46053 24.8916,60.48523 -6.31687,-14.85705 -24.7572,-34.48238 -24.28026,-56.2931 z" />
      <path
         id="path1009"
         style="fill:#ac9d93;stroke:#000000;stroke-width:1.265;stroke-linecap:butt;stroke-linejoin:miter;stroke-miterlimit:4;stroke-dasharray:none;stroke-opacity:1"
         d="m 262.6733,107.3493 c -3.76842,2.90531 -7.84452,6.27778 -8.79692,11.20527 -1.37755,4.17669 -3.60874,8.14702 -3.90404,12.62026 -0.21485,1.87784 0.30698,3.72612 0.0371,5.59772 -0.14823,5.14284 1.20666,10.32621 3.89281,14.71767 0.23863,2.37877 2.83821,4.4303 5.13073,3.17662 2.87269,-1.00252 5.17459,-3.11459 7.97139,-4.27568 4.73444,-4.29537 6.58477,-10.98619 6.1505,-17.21816 0.13154,-6.89605 -1.5408,-13.66778 -3.57142,-20.20908 -1.93338,-1.84397 -2.15397,-5.16736 -4.753,-6.34106 -0.80231,-0.17939 -1.49144,0.38049 -2.15717,0.72644 z" />
      <path
         id="path880"
         style="fill:#ac9d93;stroke:#000000;stroke-width:3.765;stroke-linecap:butt;stroke-linejoin:miter;stroke-miterlimit:4;stroke-dasharray:none;stroke-opacity:1"
         d="m 268.58687,153.04638 c 37.305,0.80328 -10.32851,29.87741 -7.56238,49.40908 0.91288,15.59951 -18.05137,28.3272 -16.07079,4.90372 0.24237,-19.30218 8.0306,-42.79798 23.63317,-54.3128 z" />
      <path
         id="path882"
         style="fill:#e3e2db;stroke:#000000;stroke-width:3.765;stroke-linecap:butt;stroke-linejoin:miter;stroke-miterlimit:4;stroke-dasharray:none;stroke-opacity:1"
         d="m 138.06577,202.98202 c -19.83156,15.69744 -40.772366,31.94339 -49.670347,57.62961 -16.617636,24.7 37.722177,49.22696 49.811267,20.00719 16.13644,-14.21753 37.17122,-23.11279 20.52695,-47.8043 -3.12266,-11.2871 -14.27996,-19.90431 -20.66787,-29.8325 z" />
      <path
         id="path884"
         style="fill:#e3e2db;stroke:#000000;stroke-width:3.765;stroke-linecap:butt;stroke-linejoin:miter;stroke-miterlimit:4;stroke-dasharray:none;stroke-opacity:1"
         d="m 84.232786,271.06491 c -22.88529,1.95962 -48.467769,25.50125 -12.687198,31.44907 14.186944,1.635 27.806694,0.0238 15.229084,15.34445 14.568088,6.08564 34.936548,-19.84833 37.578018,-25.30028 -16.93913,2.51283 -35.464618,-3.73633 -40.119904,-21.49324 z" />
      <path
         id="path886"
         style="fill:#e3dedb;stroke:#000000;stroke-width:3.765;stroke-linecap:butt;stroke-linejoin:miter;stroke-miterlimit:4;stroke-dasharray:none;stroke-opacity:1"
         d="m 164.03227,263.14829 c 15.30585,24.49721 24.54683,53.96644 59.06699,48.28281 30.22249,0.0302 61.55518,-9.07325 87.21536,-25.42359 21.28752,-10.43615 37.72074,-40.71403 3.11465,-43.66236 -14.56281,-7.22975 -29.76064,-16.50207 -43.03098,-32.16734 -7.45601,-7.44403 6.78267,-23.90222 8.66374,-35.04346 3.78573,-21.84436 -20.25346,29.85087 -21.89697,40.05107 -12.85413,21.45862 -15.56335,-29.50213 -5.87736,-37.07347 -9.11823,-1.14006 -38.12684,31.56038 -60.66563,19.30125 -13.08438,-1.69428 -31.00439,1.35041 -37.44007,-11.2343 -1.7714,19.45965 23.0065,36.51365 21.10983,49.01677 -29.33397,-17.06948 -7.63593,14.53873 -8.35957,27.31929" />
      <path
         id="path890"
         style="fill:#6c6753;stroke:#000000;stroke-width:3.765;stroke-linecap:butt;stroke-linejoin:miter;stroke-miterlimit:4;stroke-dasharray:none;stroke-opacity:1"
         d="m 189.6821,307.16468 c 9.09791,27.13926 43.69802,10.20522 64.53017,10.47218 28.76125,-6.93329 61.37146,-15.75737 78.77932,-41.76567 9.21293,-28.07343 -19.07984,13.50507 -29.91685,14.62819 -25.61705,11.63464 -54.91526,21.85095 -83.15558,20.50135 -10.07902,-1.27868 -20.15804,-2.55737 -30.23706,-3.83605 z" />
      <path
         id="path894"
         style="fill:#c8beb7;stroke:#000000;stroke-width:3.765;stroke-linecap:butt;stroke-linejoin:miter;stroke-miterlimit:4;stroke-dasharray:none;stroke-opacity:1"
         d="m 328.06454,370.81425 c -1.53538,32.26311 54.09107,27.747 30.16585,-2.46634 -9.69724,5.39469 -19.64272,1.1893 -30.16585,2.46634 z" />
      <path
         id="path898"
         style="fill:#ac9d93;stroke:#000000;stroke-width:3.765;stroke-linecap:butt;stroke-linejoin:miter;stroke-miterlimit:4;stroke-dasharray:none;stroke-opacity:1"
         d="m 354.68245,369.90871 c 5.38176,9.27133 -6.26149,37.76112 8.00779,17.84254 -1.01222,-4.65209 1.39564,-25.19018 -8.45563,-18.1784" />
      <path
         id="path900"
         style="fill:#c8beb7;stroke:#000000;stroke-width:3.765;stroke-linecap:butt;stroke-linejoin:miter;stroke-miterlimit:4;stroke-dasharray:none;stroke-opacity:1"
         d="m 387.28081,339.78111 c 4.23205,36.41375 58.94178,19.18603 39.6287,-14.30818 -2.43058,-27.12216 -32.30053,-57.28487 -57.04525,-31.60816 25.02867,-8.16795 28.68382,34.05019 17.41655,45.91634 z" />
      <path
         id="path902"
         style="fill:none;stroke:#000000;stroke-width:3.765;stroke-linecap:butt;stroke-linejoin:miter;stroke-miterlimit:4;stroke-dasharray:none;stroke-opacity:1"
         d="m 395.83076,289.27311 c 13.43044,17.54411 24.08403,39.05726 23.74979,61.59127" />
      <path
         id="path904"
         style="fill:#e3e2db;stroke:#000000;stroke-width:3.765;stroke-linecap:butt;stroke-linejoin:miter;stroke-miterlimit:4;stroke-dasharray:none;stroke-opacity:1"
         d="m 285.47314,158.64897 c 24.61148,-0.36651 40.25569,20.37476 61.35384,28.56511 25.88378,9.57244 42.64431,33.04035 53.50586,57.28099 -3.91071,16.19035 43.57896,28.76005 11.64185,41.12198 -10.27386,2.10889 -30.90308,-24.69382 -28.777,-5.90263 -2.14387,-38.71897 -34.97647,-38.45842 -61.90459,-49.11797 -24.71184,-6.23668 -32.4201,-5.83351 -53.03901,-20.60096 -0.39851,-15.99819 12.9804,-35.04477 17.21905,-51.34652 z"
         sodipodi:nodetypes="cccccccc" />
      <path
         id="path908"
         style="fill:#6c6753;stroke:#000000;stroke-width:3.765;stroke-linecap:butt;stroke-linejoin:miter;stroke-miterlimit:4;stroke-dasharray:none;stroke-opacity:1"
         d="m 304.6373,137.93207 c 17.9237,-25.77654 37.70406,23.48617 44.98869,38.37429 6.99472,27.83963 -26.76818,-7.42875 -25.59775,-21.43335 -4.53556,-13.90471 -19.09625,1.92404 -19.50291,-16.49311" />
      <path
         id="path910"
         style="fill:#ac9d93;stroke:#000000;stroke-width:3.765;stroke-linecap:butt;stroke-linejoin:miter;stroke-miterlimit:4;stroke-dasharray:none;stroke-opacity:1"
         d="m 130.78248,151.99901 c -21.21022,17.25552 -0.60114,35.13347 7.27434,48.51875 -24.85478,8.03474 -52.559507,-27.91151 -34.82705,-51.00462 12.67923,-13.09391 27.1436,-24.93121 27.55271,2.48587 z" />
      <path
         id="path912"
         style="fill:#c8beb7;stroke:#000000;stroke-width:3.765;stroke-linecap:butt;stroke-linejoin:miter;stroke-miterlimit:4;stroke-dasharray:none;stroke-opacity:1"
         d="m 177.33218,229.58184 c 23.26124,-8.51443 48.85807,-14.52421 73.60033,-11.55364 10.80112,10.16759 20.15164,39.3213 17.22756,51.95033 -21.23856,12.44129 -57.48409,28.38038 -76.55843,7.15915 -5.66157,-13.35206 -30.72079,-34.92301 -14.26946,-47.55584 z" />
      <path
         id="path998"
         style="fill:#ffdd55;stroke:none;stroke-width:0.264583px;stroke-linecap:butt;stroke-linejoin:miter;stroke-opacity:1"
         d="m 159.2823,88.032761 c -7.58264,13.571599 -12.21379,28.801479 -10.15575,44.416899 -3.01934,12.34926 1.57357,24.58318 6.13528,34.92711 -13.20077,-10.79011 -23.32582,-26.54501 -23.97087,-43.96351 3.66794,-13.30787 10.6777,-28.872826 23.35281,-35.511109 l 2.27494,-0.247741 z" />
      <ellipse
         style="opacity:1;fill:#ffeeaa;fill-opacity:1;stroke:none;stroke-width:2.52347;stroke-linejoin:round;stroke-miterlimit:4;stroke-dasharray:none;paint-order:markers fill stroke"
         id="path1007"
         cx="157.89378"
         cy="88.087097"
         rx="3.2481425"
         ry="3.1169763" />
      <path
         id="path1017"
         style="fill:#6c6753;stroke:#000000;stroke-width:1.065;stroke-linecap:butt;stroke-linejoin:miter;stroke-miterlimit:4;stroke-dasharray:none;stroke-opacity:1"
         d="m 113.74917,224.81135 c 5.89051,10.1794 5.71857,25.86193 18.54127,30.4368 6.10064,3.99064 18.3776,7.77429 20.63225,11.89383 -7.67547,8.16178 -17.25962,-4.69729 -25.7183,-6.54416 -6.38937,-4.84271 -8.49069,-13.08798 -12.55171,-19.73907 -2.09249,-4.00564 -4.18499,-8.01127 -6.27749,-12.01691 1.79133,-1.3435 3.58265,-2.68699 5.37398,-4.03049 z" />
      <path
         id="path1026"
         style="fill:#6c6753;stroke:#000000;stroke-width:0.965;stroke-linecap:butt;stroke-linejoin:miter;stroke-miterlimit:4;stroke-dasharray:none;stroke-opacity:1"
         d="m 306.7645,226.15485 c 3.47871,-8.15852 1.3163,-20.03937 10.49605,-24.77724 7.84638,-5.02658 15.69276,-10.05316 23.53913,-15.07975 7.0334,4.94849 -8.10898,7.70732 -10.59261,11.42382 -7.81598,3.7375 -17.42899,8.3343 -17.99622,18.23221 -0.43568,3.58518 0.26137,11.86275 -5.52117,10.77795" />
      <path
         id="path1035"
         style="fill:#e3e2db;stroke:none;stroke-width:0.264583px;stroke-linecap:butt;stroke-linejoin:miter;stroke-opacity:1"
         d="m 127.18411,101.09794 12.31536,-21.831785 c 7.03036,-3.82802 15.46704,-10.794442 22.67652,-14.252482 3.2479,-2.463959 7.6465,-0.882533 5.39093,3.616887 -2.43001,4.935968 -9.08757,4.946674 -13.3568,7.655277 -5.9747,2.325218 -11.98988,4.882429 -16.18273,9.955759 -4.18369,4.485416 -7.10976,9.994121 -10.84328,14.856344 z"
         sodipodi:nodetypes="ccccccc" />
    </g>
  </g>
</svg>
