<svg xmlns="http://www.w3.org/2000/svg" width="210mm" height="297mm" viewBox="0 0 210 297" style=""><path fill="#e9afdd" stroke="#050401" stroke-width="2" stroke-linecap="round" stroke-linejoin="round" paint-order="markers fill stroke" d="M89.58,63.689A5.859,5.859 0,1,1 101.29799999999999,63.689A5.859,5.859 0,1,1 89.58,63.689" class="WcamQPHp_0"></path><path d="M95.439 69.926v11.528" fill="none" stroke="#000" stroke-width="1.5" class="WcamQPHp_1"></path><path fill="#e9afdd" stroke="#050401" stroke-width="2" stroke-linecap="round" stroke-linejoin="round" paint-order="markers fill stroke" d="M88.82400000000001,86.935A5.859,5.859 0,1,1 100.542,86.935A5.859,5.859 0,1,1 88.82400000000001,86.935" class="WcamQPHp_2"></path><path d="M94.494 93.077v11.528" fill="none" stroke="#000" stroke-width="1.5" class="WcamQPHp_3"></path><path fill="#e9afdd" stroke="#050401" stroke-width="2" stroke-linecap="round" stroke-linejoin="round" paint-order="markers fill stroke" d="M88.257,111.125A5.859,5.859 0,1,1 99.975,111.125A5.859,5.859 0,1,1 88.257,111.125" class="WcamQPHp_4"></path><path fill="#e9afdd" stroke="#050401" stroke-width="2" stroke-linecap="round" stroke-linejoin="round" paint-order="markers fill stroke" d="M66.27000000000001,93.695A5.859,5.859 0,1,1 77.988,93.695A5.859,5.859 0,1,1 66.27000000000001,93.695" class="WcamQPHp_5"></path><path fill="#e9afdd" stroke="#050401" stroke-width="2" stroke-linecap="round" stroke-linejoin="round" paint-order="markers fill stroke" d="M65.506,119.7A5.859,5.859 0,1,1 77.22399999999999,119.7A5.859,5.859 0,1,1 65.506,119.7" class="WcamQPHp_6"></path><path fill="#e9afdd" stroke="#050401" stroke-width="2" stroke-linecap="round" stroke-linejoin="round" paint-order="markers fill stroke" d="M111.69200000000001,91.659A5.859,5.859 0,1,1 123.41,91.659A5.859,5.859 0,1,1 111.69200000000001,91.659" class="WcamQPHp_7"></path><path fill="#e9afdd" stroke="#050401" stroke-width="2" stroke-linecap="round" stroke-linejoin="round" paint-order="markers fill stroke" d="M111.503,118.779A5.859,5.859 0,1,1 123.22099999999999,118.779A5.859,5.859 0,1,1 111.503,118.779" class="WcamQPHp_8"></path><path d="M88.199 111.184l-11.359 5.212" fill="none" stroke="#000" stroke-width="1.5" class="WcamQPHp_9"></path><path fill="#e9afdd" stroke="#050401" stroke-width="2" stroke-linecap="round" stroke-linejoin="round" paint-order="markers fill stroke" d="M88.82400000000001,86.935A5.859,5.859 0,1,1 100.542,86.935A5.859,5.859 0,1,1 88.82400000000001,86.935" class="WcamQPHp_10"></path><path fill="#e9afdd" stroke="#050401" stroke-width="2" stroke-linecap="round" stroke-linejoin="round" paint-order="markers fill stroke" d="M88.82400000000001,86.935A5.859,5.859 0,1,1 100.542,86.935A5.859,5.859 0,1,1 88.82400000000001,86.935" class="WcamQPHp_11"></path><path fill="#e9afdd" stroke="#050401" stroke-width="2" stroke-linecap="round" stroke-linejoin="round" paint-order="markers fill stroke" d="M88.82400000000001,86.935A5.859,5.859 0,1,1 100.542,86.935A5.859,5.859 0,1,1 88.82400000000001,86.935" class="WcamQPHp_12"></path><path fill="#e9afdd" stroke="#050401" stroke-width="2" stroke-linecap="round" stroke-linejoin="round" paint-order="markers fill stroke" d="M88.82400000000001,86.935A5.859,5.859 0,1,1 100.542,86.935A5.859,5.859 0,1,1 88.82400000000001,86.935" class="WcamQPHp_13"></path><path d="M88.867 87.397L77.91 92.208M100.258 109.802l11.434 5.386M100.636 86.462l10.867 4.536M71.437 99.88v13.89M117.74 97.707l-.284 14.268M65.2 121.897l-15.118 7.938" fill="none" stroke="#000" stroke-width="1.5" class="WcamQPHp_14"></path><path d="M122.723 122.377l14.035 9.435" fill="none" stroke="#000" stroke-width="1.765" class="WcamQPHp_15"></path><path fill="#e9afdd" stroke="#050401" stroke-width="2" stroke-linecap="round" stroke-linejoin="round" paint-order="markers fill stroke" d="M41.388,130.402A5.859,5.859 0,1,1 53.106,130.402A5.859,5.859 0,1,1 41.388,130.402" class="WcamQPHp_16"></path><path fill="#e9afdd" stroke="#050401" stroke-width="2" stroke-linecap="round" stroke-linejoin="round" paint-order="markers fill stroke" d="M133.992,131.347A5.859,5.859 0,1,1 145.71,131.347A5.859,5.859 0,1,1 133.992,131.347" class="WcamQPHp_17"></path><path d="M93.945 117.732l-.133 22.317" fill="none" stroke="#000" stroke-width="1.5" class="WcamQPHp_18"></path><path fill="#e9afdd" stroke="#050401" stroke-width="2" stroke-linecap="round" stroke-linejoin="round" paint-order="markers fill stroke" d="M87.685,143.256A5.859,5.859 0,1,1 99.40299999999999,143.256A5.859,5.859 0,1,1 87.685,143.256" class="WcamQPHp_19"></path><path d="M46.772 136.842l-.267 24.589M139.648 137.644l-.267 24.589" fill="none" stroke="#000" stroke-width="1.5" class="WcamQPHp_20"></path><path fill="#e9afdd" stroke="#050401" stroke-width="2" stroke-linecap="round" stroke-linejoin="round" paint-order="markers fill stroke" d="M39.564,164.605A5.859,5.859 0,1,1 51.282000000000004,164.605A5.859,5.859 0,1,1 39.564,164.605" class="WcamQPHp_21"></path><path fill="#e9afdd" stroke="#050401" stroke-width="2" stroke-linecap="round" stroke-linejoin="round" paint-order="markers fill stroke" d="M133.743,166.689A5.859,5.859 0,1,1 145.461,166.689A5.859,5.859 0,1,1 133.743,166.689" class="WcamQPHp_22"></path><path d="M41.047 168.773l-15.419 9.584M45.773 171.155l.133 18.155M49.725 167.899l12.232 13.416M93.45 149.395l-.104 15.731M87.859 146.52l-15.419 9.584M97.385 146.835l15.622 9.248M138.64 172.822v15.176M143.736 170.2l14.561 10.843M133.532 169.503l-15.418 9.585" fill="none" stroke="#000" stroke-width="1.5" class="WcamQPHp_23"></path><path fill="#e9afdd" stroke="#050401" stroke-width="2" stroke-linecap="round" stroke-linejoin="round" paint-order="markers fill stroke" d="M16.612000000000002,180.823A5.859,5.859 0,1,1 28.33,180.823A5.859,5.859 0,1,1 16.612000000000002,180.823" class="WcamQPHp_24"></path><path fill="#e9afdd" stroke="#050401" stroke-width="2" stroke-linecap="round" stroke-linejoin="round" paint-order="markers fill stroke" d="M39.147,194.401A5.859,5.859 0,1,1 50.865,194.401A5.859,5.859 0,1,1 39.147,194.401" class="WcamQPHp_25"></path><path fill="#e9afdd" stroke="#050401" stroke-width="2" stroke-linecap="round" stroke-linejoin="round" paint-order="markers fill stroke" d="M59.565999999999995,184.4A5.859,5.859 0,1,1 71.28399999999999,184.4A5.859,5.859 0,1,1 59.565999999999995,184.4" class="WcamQPHp_26"></path><path fill="#e9afdd" stroke="#050401" stroke-width="2" stroke-linecap="round" stroke-linejoin="round" paint-order="markers fill stroke" d="M62.692,157.313A5.859,5.859 0,1,1 74.41,157.313A5.859,5.859 0,1,1 62.692,157.313" class="WcamQPHp_27"></path><path fill="#e9afdd" stroke="#050401" stroke-width="2" stroke-linecap="round" stroke-linejoin="round" paint-order="markers fill stroke" d="M87.278,170.648A5.859,5.859 0,1,1 98.996,170.648A5.859,5.859 0,1,1 87.278,170.648" class="WcamQPHp_28"></path><path fill="#e9afdd" stroke="#050401" stroke-width="2" stroke-linecap="round" stroke-linejoin="round" paint-order="markers fill stroke" d="M111.65700000000001,156.896A5.859,5.859 0,1,1 123.375,156.896A5.859,5.859 0,1,1 111.65700000000001,156.896" class="WcamQPHp_29"></path><path fill="#e9afdd" stroke="#050401" stroke-width="2" stroke-linecap="round" stroke-linejoin="round" paint-order="markers fill stroke" d="M132.91,192.734A5.859,5.859 0,1,1 144.62800000000001,192.734A5.859,5.859 0,1,1 132.91,192.734" class="WcamQPHp_30"></path><path fill="#e9afdd" stroke="#050401" stroke-width="2" stroke-linecap="round" stroke-linejoin="round" paint-order="markers fill stroke" d="M107.69800000000001,180.857A5.859,5.859 0,1,1 119.416,180.857A5.859,5.859 0,1,1 107.69800000000001,180.857" class="WcamQPHp_31"></path><path fill="#e9afdd" stroke="#050401" stroke-width="2" stroke-linecap="round" stroke-linejoin="round" paint-order="markers fill stroke" d="M156.66299999999998,184.191A5.859,5.859 0,1,1 168.381,184.191A5.859,5.859 0,1,1 156.66299999999998,184.191" class="WcamQPHp_32"></path><style data-made-with="vivus-instant">.WcamQPHp_0{stroke-dasharray:37 39;stroke-dashoffset:38;animation:WcamQPHp_draw_0 8200ms linear 0ms infinite,WcamQPHp_fade 8200ms linear 0ms infinite;}.WcamQPHp_1{stroke-dasharray:12 14;stroke-dashoffset:13;animation:WcamQPHp_draw_1 8200ms linear 0ms infinite,WcamQPHp_fade 8200ms linear 0ms infinite;}.WcamQPHp_2{stroke-dasharray:37 39;stroke-dashoffset:38;animation:WcamQPHp_draw_2 8200ms linear 0ms infinite,WcamQPHp_fade 8200ms linear 0ms infinite;}.WcamQPHp_3{stroke-dasharray:12 14;stroke-dashoffset:13;animation:WcamQPHp_draw_3 8200ms linear 0ms infinite,WcamQPHp_fade 8200ms linear 0ms infinite;}.WcamQPHp_4{stroke-dasharray:37 39;stroke-dashoffset:38;animation:WcamQPHp_draw_4 8200ms linear 0ms infinite,WcamQPHp_fade 8200ms linear 0ms infinite;}.WcamQPHp_5{stroke-dasharray:37 39;stroke-dashoffset:38;animation:WcamQPHp_draw_5 8200ms linear 0ms infinite,WcamQPHp_fade 8200ms linear 0ms infinite;}.WcamQPHp_6{stroke-dasharray:37 39;stroke-dashoffset:38;animation:WcamQPHp_draw_6 8200ms linear 0ms infinite,WcamQPHp_fade 8200ms linear 0ms infinite;}.WcamQPHp_7{stroke-dasharray:37 39;stroke-dashoffset:38;animation:WcamQPHp_draw_7 8200ms linear 0ms infinite,WcamQPHp_fade 8200ms linear 0ms infinite;}.WcamQPHp_8{stroke-dasharray:37 39;stroke-dashoffset:38;animation:WcamQPHp_draw_8 8200ms linear 0ms infinite,WcamQPHp_fade 8200ms linear 0ms infinite;}.WcamQPHp_9{stroke-dasharray:13 15;stroke-dashoffset:14;animation:WcamQPHp_draw_9 8200ms linear 0ms infinite,WcamQPHp_fade 8200ms linear 0ms infinite;}.WcamQPHp_10{stroke-dasharray:37 39;stroke-dashoffset:38;animation:WcamQPHp_draw_10 8200ms linear 0ms infinite,WcamQPHp_fade 8200ms linear 0ms infinite;}.WcamQPHp_11{stroke-dasharray:37 39;stroke-dashoffset:38;animation:WcamQPHp_draw_11 8200ms linear 0ms infinite,WcamQPHp_fade 8200ms linear 0ms infinite;}.WcamQPHp_12{stroke-dasharray:37 39;stroke-dashoffset:38;animation:WcamQPHp_draw_12 8200ms linear 0ms infinite,WcamQPHp_fade 8200ms linear 0ms infinite;}.WcamQPHp_13{stroke-dasharray:37 39;stroke-dashoffset:38;animation:WcamQPHp_draw_13 8200ms linear 0ms infinite,WcamQPHp_fade 8200ms linear 0ms infinite;}.WcamQPHp_14{stroke-dasharray:82 84;stroke-dashoffset:83;animation:WcamQPHp_draw_14 8200ms linear 0ms infinite,WcamQPHp_fade 8200ms linear 0ms infinite;}.WcamQPHp_15{stroke-dasharray:17 19;stroke-dashoffset:18;animation:WcamQPHp_draw_15 8200ms linear 0ms infinite,WcamQPHp_fade 8200ms linear 0ms infinite;}.WcamQPHp_16{stroke-dasharray:37 39;stroke-dashoffset:38;animation:WcamQPHp_draw_16 8200ms linear 0ms infinite,WcamQPHp_fade 8200ms linear 0ms infinite;}.WcamQPHp_17{stroke-dasharray:37 39;stroke-dashoffset:38;animation:WcamQPHp_draw_17 8200ms linear 0ms infinite,WcamQPHp_fade 8200ms linear 0ms infinite;}.WcamQPHp_18{stroke-dasharray:23 25;stroke-dashoffset:24;animation:WcamQPHp_draw_18 8200ms linear 0ms infinite,WcamQPHp_fade 8200ms linear 0ms infinite;}.WcamQPHp_19{stroke-dasharray:37 39;stroke-dashoffset:38;animation:WcamQPHp_draw_19 8200ms linear 0ms infinite,WcamQPHp_fade 8200ms linear 0ms infinite;}.WcamQPHp_20{stroke-dasharray:50 52;stroke-dashoffset:51;animation:WcamQPHp_draw_20 8200ms linear 0ms infinite,WcamQPHp_fade 8200ms linear 0ms infinite;}.WcamQPHp_21{stroke-dasharray:37 39;stroke-dashoffset:38;animation:WcamQPHp_draw_21 8200ms linear 0ms infinite,WcamQPHp_fade 8200ms linear 0ms infinite;}.WcamQPHp_22{stroke-dasharray:37 39;stroke-dashoffset:38;animation:WcamQPHp_draw_22 8200ms linear 0ms infinite,WcamQPHp_fade 8200ms linear 0ms infinite;}.WcamQPHp_23{stroke-dasharray:158 160;stroke-dashoffset:159;animation:WcamQPHp_draw_23 8200ms linear 0ms infinite,WcamQPHp_fade 8200ms linear 0ms infinite;}.WcamQPHp_24{stroke-dasharray:37 39;stroke-dashoffset:38;animation:WcamQPHp_draw_24 8200ms linear 0ms infinite,WcamQPHp_fade 8200ms linear 0ms infinite;}.WcamQPHp_25{stroke-dasharray:37 39;stroke-dashoffset:38;animation:WcamQPHp_draw_25 8200ms linear 0ms infinite,WcamQPHp_fade 8200ms linear 0ms infinite;}.WcamQPHp_26{stroke-dasharray:37 39;stroke-dashoffset:38;animation:WcamQPHp_draw_26 8200ms linear 0ms infinite,WcamQPHp_fade 8200ms linear 0ms infinite;}.WcamQPHp_27{stroke-dasharray:37 39;stroke-dashoffset:38;animation:WcamQPHp_draw_27 8200ms linear 0ms infinite,WcamQPHp_fade 8200ms linear 0ms infinite;}.WcamQPHp_28{stroke-dasharray:37 39;stroke-dashoffset:38;animation:WcamQPHp_draw_28 8200ms linear 0ms infinite,WcamQPHp_fade 8200ms linear 0ms infinite;}.WcamQPHp_29{stroke-dasharray:37 39;stroke-dashoffset:38;animation:WcamQPHp_draw_29 8200ms linear 0ms infinite,WcamQPHp_fade 8200ms linear 0ms infinite;}.WcamQPHp_30{stroke-dasharray:37 39;stroke-dashoffset:38;animation:WcamQPHp_draw_30 8200ms linear 0ms infinite,WcamQPHp_fade 8200ms linear 0ms infinite;}.WcamQPHp_31{stroke-dasharray:37 39;stroke-dashoffset:38;animation:WcamQPHp_draw_31 8200ms linear 0ms infinite,WcamQPHp_fade 8200ms linear 0ms infinite;}.WcamQPHp_32{stroke-dasharray:37 39;stroke-dashoffset:38;animation:WcamQPHp_draw_32 8200ms linear 0ms infinite,WcamQPHp_fade 8200ms linear 0ms infinite;}@keyframes WcamQPHp_draw{100%{stroke-dashoffset:0;}}@keyframes WcamQPHp_fade{0%{stroke-opacity:1;}95.1219512195122%{stroke-opacity:1;}100%{stroke-opacity:0;}}@keyframes WcamQPHp_draw_0{9.75609756097561%{stroke-dashoffset: 38}11.15508513575702%{ stroke-dashoffset: 0;}100%{ stroke-dashoffset: 0;}}@keyframes WcamQPHp_draw_1{11.15508513575702%{stroke-dashoffset: 13}11.633686148182235%{ stroke-dashoffset: 0;}100%{ stroke-dashoffset: 0;}}@keyframes WcamQPHp_draw_2{11.633686148182235%{stroke-dashoffset: 38}13.032673722963645%{ stroke-dashoffset: 0;}100%{ stroke-dashoffset: 0;}}@keyframes WcamQPHp_draw_3{13.032673722963645%{stroke-dashoffset: 13}13.511274735388861%{ stroke-dashoffset: 0;}100%{ stroke-dashoffset: 0;}}@keyframes WcamQPHp_draw_4{13.511274735388861%{stroke-dashoffset: 38}14.910262310170271%{ stroke-dashoffset: 0;}100%{ stroke-dashoffset: 0;}}@keyframes WcamQPHp_draw_5{14.910262310170271%{stroke-dashoffset: 38}16.30924988495168%{ stroke-dashoffset: 0;}100%{ stroke-dashoffset: 0;}}@keyframes WcamQPHp_draw_6{16.30924988495168%{stroke-dashoffset: 38}17.70823745973309%{ stroke-dashoffset: 0;}100%{ stroke-dashoffset: 0;}}@keyframes WcamQPHp_draw_7{17.70823745973309%{stroke-dashoffset: 38}19.107225034514496%{ stroke-dashoffset: 0;}100%{ stroke-dashoffset: 0;}}@keyframes WcamQPHp_draw_8{19.107225034514496%{stroke-dashoffset: 38}20.506212609295904%{ stroke-dashoffset: 0;}100%{ stroke-dashoffset: 0;}}@keyframes WcamQPHp_draw_9{20.506212609295904%{stroke-dashoffset: 14}21.021629084215373%{ stroke-dashoffset: 0;}100%{ stroke-dashoffset: 0;}}@keyframes WcamQPHp_draw_10{21.02162908421537%{stroke-dashoffset: 38}22.420616658996778%{ stroke-dashoffset: 0;}100%{ stroke-dashoffset: 0;}}@keyframes WcamQPHp_draw_11{22.42061665899678%{stroke-dashoffset: 38}23.81960423377819%{ stroke-dashoffset: 0;}100%{ stroke-dashoffset: 0;}}@keyframes WcamQPHp_draw_12{23.819604233778186%{stroke-dashoffset: 38}25.218591808559594%{ stroke-dashoffset: 0;}100%{ stroke-dashoffset: 0;}}@keyframes WcamQPHp_draw_13{25.218591808559594%{stroke-dashoffset: 38}26.617579383341006%{ stroke-dashoffset: 0;}100%{ stroke-dashoffset: 0;}}@keyframes WcamQPHp_draw_14{26.617579383341006%{stroke-dashoffset: 83}29.67326277036355%{ stroke-dashoffset: 0;}100%{ stroke-dashoffset: 0;}}@keyframes WcamQPHp_draw_15{29.67326277036355%{stroke-dashoffset: 18}30.335941095260004%{ stroke-dashoffset: 0;}100%{ stroke-dashoffset: 0;}}@keyframes WcamQPHp_draw_16{30.335941095260004%{stroke-dashoffset: 38}31.73492867004142%{ stroke-dashoffset: 0;}100%{ stroke-dashoffset: 0;}}@keyframes WcamQPHp_draw_17{31.73492867004142%{stroke-dashoffset: 38}33.13391624482283%{ stroke-dashoffset: 0;}100%{ stroke-dashoffset: 0;}}@keyframes WcamQPHp_draw_18{33.13391624482283%{stroke-dashoffset: 24}34.01748734468477%{ stroke-dashoffset: 0;}100%{ stroke-dashoffset: 0;}}@keyframes WcamQPHp_draw_19{34.01748734468477%{stroke-dashoffset: 38}35.41647491946618%{ stroke-dashoffset: 0;}100%{ stroke-dashoffset: 0;}}@keyframes WcamQPHp_draw_20{35.416474919466175%{stroke-dashoffset: 51}37.2940635066728%{ stroke-dashoffset: 0;}100%{ stroke-dashoffset: 0;}}@keyframes WcamQPHp_draw_21{37.294063506672806%{stroke-dashoffset: 38}38.693051081454215%{ stroke-dashoffset: 0;}100%{ stroke-dashoffset: 0;}}@keyframes WcamQPHp_draw_22{38.69305108145421%{stroke-dashoffset: 38}40.092038656235616%{ stroke-dashoffset: 0;}100%{ stroke-dashoffset: 0;}}@keyframes WcamQPHp_draw_23{40.092038656235616%{stroke-dashoffset: 159}45.94569719282099%{ stroke-dashoffset: 0;}100%{ stroke-dashoffset: 0;}}@keyframes WcamQPHp_draw_24{45.94569719282099%{stroke-dashoffset: 38}47.34468476760239%{ stroke-dashoffset: 0;}100%{ stroke-dashoffset: 0;}}@keyframes WcamQPHp_draw_25{47.344684767602395%{stroke-dashoffset: 38}48.7436723423838%{ stroke-dashoffset: 0;}100%{ stroke-dashoffset: 0;}}@keyframes WcamQPHp_draw_26{48.743672342383796%{stroke-dashoffset: 38}50.14265991716521%{ stroke-dashoffset: 0;}100%{ stroke-dashoffset: 0;}}@keyframes WcamQPHp_draw_27{50.14265991716521%{stroke-dashoffset: 38}51.54164749194662%{ stroke-dashoffset: 0;}100%{ stroke-dashoffset: 0;}}@keyframes WcamQPHp_draw_28{51.54164749194662%{stroke-dashoffset: 38}52.94063506672803%{ stroke-dashoffset: 0;}100%{ stroke-dashoffset: 0;}}@keyframes WcamQPHp_draw_29{52.94063506672803%{stroke-dashoffset: 38}54.339622641509436%{ stroke-dashoffset: 0;}100%{ stroke-dashoffset: 0;}}@keyframes WcamQPHp_draw_30{54.339622641509436%{stroke-dashoffset: 38}55.73861021629084%{ stroke-dashoffset: 0;}100%{ stroke-dashoffset: 0;}}@keyframes WcamQPHp_draw_31{55.73861021629084%{stroke-dashoffset: 38}57.137597791072245%{ stroke-dashoffset: 0;}100%{ stroke-dashoffset: 0;}}@keyframes WcamQPHp_draw_32{57.137597791072245%{stroke-dashoffset: 38}58.536585365853654%{ stroke-dashoffset: 0;}100%{ stroke-dashoffset: 0;}}</style></svg>