<?xml version="1.0" encoding="UTF-8" standalone="no"?>
<svg
   xmlns:dc="http://purl.org/dc/elements/1.1/"
   xmlns:cc="http://creativecommons.org/ns#"
   xmlns:rdf="http://www.w3.org/1999/02/22-rdf-syntax-ns#"
   xmlns:svg="http://www.w3.org/2000/svg"
   xmlns="http://www.w3.org/2000/svg"
   xmlns:sodipodi="http://sodipodi.sourceforge.net/DTD/sodipodi-0.dtd"
   xmlns:inkscape="http://www.inkscape.org/namespaces/inkscape"
   width="500mm"
   height="200mm"
   viewBox="0 0 500 200"
   version="1.1"
   id="svg8"
   inkscape:version="1.0.2 (e86c870879, 2021-01-15, custom)"
   sodipodi:docname="chemistry.svg">
  <defs
     id="defs2" />
  <sodipodi:namedview
     id="base"
     pagecolor="#ffffff"
     bordercolor="#666666"
     borderopacity="1.0"
     inkscape:pageopacity="0.0"
     inkscape:pageshadow="2"
     inkscape:zoom="0.25077661"
     inkscape:cx="1120.1925"
     inkscape:cy="1223.807"
     inkscape:document-units="mm"
     inkscape:current-layer="layer1"
     inkscape:document-rotation="0"
     showgrid="false"
     inkscape:window-width="1920"
     inkscape:window-height="1001"
     inkscape:window-x="-9"
     inkscape:window-y="-9"
     inkscape:window-maximized="1" />
  <metadata
     id="metadata5">
    <rdf:RDF>
      <cc:Work
         rdf:about="">
        <dc:format>image/svg+xml</dc:format>
        <dc:type
           rdf:resource="http://purl.org/dc/dcmitype/StillImage" />
        <dc:title />
      </cc:Work>
    </rdf:RDF>
  </metadata>
  <g
     inkscape:label="Layer 1"
     inkscape:groupmode="layer"
     id="layer1">
    <path
       id="path841"
       style="fill:none;stroke:#000000;stroke-width:11.865;stroke-linecap:round;stroke-linejoin:round;stroke-miterlimit:4;stroke-dasharray:none;stroke-opacity:1"
       d="m 84.750786,35.770751 c -22.351492,3.424791 -36.247653,7.156215 -47.794571,40.493835 -9.966002,25.064574 -9.880199,60.074344 16.293917,74.839524 14.456929,7.71958 54.677798,1.35035 61.212088,-16.07141"
       sodipodi:nodetypes="cccc" />
    <path
       style="fill:none;stroke:#000000;stroke-width:10;stroke-linecap:round;stroke-linejoin:round;stroke-miterlimit:4;stroke-dasharray:none;stroke-opacity:1"
       d="m 114.77903,66.617374 v 89.001006 -44.78395 c 18.09339,-22.608882 29.39474,-9.54441 37.26019,-0.008 l 0.99622,48.09633"
       id="path850"
       sodipodi:nodetypes="ccccc" />
    <path
       style="fill:none;stroke:#000000;stroke-width:10;stroke-linecap:round;stroke-linejoin:miter;stroke-miterlimit:4;stroke-dasharray:none;stroke-opacity:1"
       d="m 173.16822,119.43497 39.68197,0.85033 c -2.38349,-5.76163 0.53605,-24.347116 -26.07672,-24.092626 -7.39164,2.986512 -10.67113,12.826596 -13.60525,23.242296 z"
       id="path852"
       sodipodi:nodetypes="cccc" />
    <path
       style="fill:none;stroke:#000000;stroke-width:10;stroke-linecap:butt;stroke-linejoin:miter;stroke-miterlimit:4;stroke-dasharray:none;stroke-opacity:1"
       d="m 173.16822,119.43497 c -3.52706,21.10749 5.47835,28.98626 15.3059,35.99722 16.01211,6.77775 39.26205,-9.78918 42.23296,-18.99066"
       id="path854"
       sodipodi:nodetypes="ccc" />
    <path
       style="fill:none;stroke:#000000;stroke-width:10;stroke-linecap:round;stroke-linejoin:round;stroke-miterlimit:4;stroke-dasharray:none;stroke-opacity:1"
       d="m 229.28533,86.388751 1.20255,72.347249 v -51.70945 c 8.82364,-10.810612 14.25532,-7.205402 18.83989,0 l -2e-5,25.6543 -0.40085,-25.6543 c 9.48918,-12.620647 16.54481,-9.017622 22.84838,-0.40085 l -0.80171,51.3086"
       id="path856"
       sodipodi:nodetypes="cccccccc" />
    <path
       style="fill:none;stroke:#000000;stroke-width:10;stroke-linecap:round;stroke-linejoin:miter;stroke-miterlimit:4;stroke-dasharray:none;stroke-opacity:1"
       d="m 295.02448,99.811268 c -9.20919,13.190342 -1.3075,37.787942 -0.40084,57.722182"
       id="path858"
       sodipodi:nodetypes="cc" />
    <path
       style="fill:none;stroke:#000000;stroke-width:10;stroke-linecap:butt;stroke-linejoin:miter;stroke-miterlimit:4;stroke-dasharray:none;stroke-opacity:1"
       d="m 356.817,101.01382 c -9.79774,-1.149952 -41.45549,-20.260096 -44.15518,12.4263 3.6841,19.54122 18.10764,10.48512 26.2212,18.81974 7.18182,21.36459 -18.38385,22.76025 -42.16278,18.49945"
       id="path862"
       sodipodi:nodetypes="cccc" />
    <path
       style="fill:none;stroke:#000000;stroke-width:10;stroke-linecap:round;stroke-linejoin:miter;stroke-miterlimit:4;stroke-dasharray:none;stroke-opacity:1"
       d="m 357.95769,50.506907 -0.40084,99.811273 c 6.45616,9.65658 15.20178,11.68162 28.0594,0 l 15.01412,-22.40723"
       id="path864"
       sodipodi:nodetypes="cccc" />
    <path
       style="fill:none;stroke:#000000;stroke-width:10;stroke-linecap:round;stroke-linejoin:miter;stroke-miterlimit:4;stroke-dasharray:none;stroke-opacity:1"
       d="m 332.3034,71.351028 48.90352,-0.801696"
       id="path866" />
    <path
       style="fill:none;stroke:#000000;stroke-width:10;stroke-linecap:butt;stroke-linejoin:round;stroke-miterlimit:4;stroke-dasharray:none;stroke-opacity:1"
       d="m 401.24932,84.579027 v 70.148483 -44.49418 c 7.4117,-14.093702 19.58176,-20.999633 28.0594,-18.03818"
       id="path868"
       sodipodi:nodetypes="cccc" />
    <path
       style="fill:none;stroke:#000000;stroke-width:10;stroke-linecap:round;stroke-linejoin:round;stroke-miterlimit:4;stroke-dasharray:none;stroke-opacity:1"
       d="m 426.20214,89.589635 17.2365,34.472965 21.14476,-35.475086 -18.43905,38.080606 -28.86107,66.9417 C 406.97821,186.91009 397.748,182.18774 411.6714,160.74025 l 52.11029,-21.24498"
       id="path870"
       sodipodi:nodetypes="ccccccc" />
    <path
       id="path872"
       style="fill:none;stroke:#ee0000;stroke-width:2.265;stroke-linecap:butt;stroke-linejoin:miter;stroke-miterlimit:4;stroke-dasharray:none;stroke-opacity:1"
       d="M 61.730667,27.658544 C 74.198529,22.848826 100.10227,20.454073 95.459754,41.181488 86.031718,54.628507 63.352612,51.719101 54.444113,67.25025 47.276649,82.261737 38.028834,98.123602 44.058945,115.1419 c 2.450433,13.59911 12.58574,29.00182 28.222891,26.80394 13.920771,0.17952 30.341964,-8.3045 29.504204,-24.18373 5.95852,-19.66975 0.78393,-40.663773 3.86859,-60.607751 13.62378,-12.06654 25.58707,9.190409 19.6627,21.740312 0.55962,17.018431 30.3107,4.681921 33.13805,24.360519 4.22871,6.74502 2.16465,18.38489 6.71883,4.0516 1.38107,-10.560955 9.51251,-15.781323 18.25064,-19.935919 7.10022,-5.696581 14.18242,-7.157996 21.68774,-0.553213 9.8232,2.115032 13.52066,27.460622 12.94898,7.790334 0,-6.282543 0,-12.565087 0,-18.84763 5.61188,-0.133616 11.22376,-0.267233 16.83564,-0.400849 -1.4099,16.954225 17.79362,16.023544 27.90906,10.817157 7.58698,1.742681 14.97278,3.526508 16.54428,11.429172 3.90422,-10.886654 25.67736,-21.4898 26.6397,-5.789788 9.43115,-12.062627 24.08943,-10.643792 37.13604,-5.232781 4.92951,-15.697043 -28.70378,-2.752718 -24.56097,-19.3057 4.52717,-16.127613 32.08769,0.826028 26.52629,-20.496232 5.18375,-20.719233 26.66827,-6.875261 26.65122,8.777473 8.73728,3.21509 28.34885,7.433237 15.60872,20.483889 -6.84424,7.63386 -22.32271,5.165043 -17.78216,20.542872 0.41418,14.900585 -4.6315,35.723155 0.88935,47.017475 14.52921,-4.95733 19.07692,-23.13403 20.88466,-36.88687 1.05448,-8.947864 0.58107,-17.96233 0.68642,-26.947331 6.34677,0 12.69353,0 19.0403,0 -2.54665,13.457068 19.95617,-12.444137 23.51899,5.698218 3.80916,7.576996 8.24759,26.637743 13.78842,9.367678 1.80479,-13.202457 25.15817,-27.012032 25.58039,-6.136369 -5.3786,16.015784 -16.37788,29.906844 -23.40422,45.385444 10.54948,-9.59654 31.62204,-0.84308 18.20116,12.60324 -6.18825,7.05773 -17.01211,6.79613 -25.21601,10.44555" />
    <path
       id="path874"
       style="fill:none;stroke:#f28000;stroke-width:3.165;stroke-linecap:butt;stroke-linejoin:miter;stroke-miterlimit:4;stroke-dasharray:none;stroke-opacity:1"
       d="m 443.53884,157.13261 c -9.73822,14.03647 -10.32275,43.19658 -31.18957,43.16082 -25.01856,-5.71108 -7.30992,-34.67116 -20.01615,-45.37345 -10.67579,17.6773 -43.17038,16.95526 -46.91467,-3.84654 -16.60839,13.34794 -36.82925,10.99704 -56.16722,13.78334 -9.16177,-5.82575 -7.55551,-51.7875 -8.70784,-25.69451 -2.14422,9.73643 4.16794,24.47682 -8.60703,27.72803 -21.70289,9.99942 -2.75913,-36.59787 -24.98986,-21.59038 -18.02934,-19.23264 0.81986,38.90289 -23.03014,22.907 -9.56858,-13.48531 -38.8421,14.00308 -51.08733,-8.85956 -10.01367,-9.15968 -12.47932,-53.01611 -11.66288,-19.27587 3.14907,11.26451 0.14645,43.67009 -15.06996,24.59126 -6.24305,-15.16556 -0.082,-69.99927 -23.16432,-45.96147 -2.54958,17.70431 9.25495,45.55435 -13.88286,51.76956 -13.747967,-0.16168 4.00046,-22.56651 -14.366967,-10.27991 -19.10529,9.35051 -45.218515,10.33863 -60.072951,-7.05735 C 19.614622,134.5727 19.818661,107.71181 19.110507,84.825915 21.641067,62.904001 38.261565,41.535632 57.029503,30.222816 c 1.567055,-0.854757 3.134109,-1.709515 4.701164,-2.564272" />
  </g>
</svg>
