<?xml version="1.0" encoding="UTF-8" standalone="no"?>
<svg
   xmlns:dc="http://purl.org/dc/elements/1.1/"
   xmlns:cc="http://creativecommons.org/ns#"
   xmlns:rdf="http://www.w3.org/1999/02/22-rdf-syntax-ns#"
   xmlns:svg="http://www.w3.org/2000/svg"
   xmlns="http://www.w3.org/2000/svg"
   width="650mm"
   height="200mm"
   viewBox="0 0 650 200"
   version="1.1"
   id="svg8">
  <defs
     id="defs2" />
  <metadata
     id="metadata5">
    <rdf:RDF>
      <cc:Work
         rdf:about="">
        <dc:format>image/svg+xml</dc:format>
        <dc:type
           rdf:resource="http://purl.org/dc/dcmitype/StillImage" />
        <dc:title></dc:title>
      </cc:Work>
    </rdf:RDF>
  </metadata>
  <g
     id="layer1">
    <path
       style="fill:none;stroke:#000000;stroke-width:3.98332;stroke-linecap:butt;stroke-linejoin:miter;stroke-miterlimit:4;stroke-dasharray:none;stroke-opacity:1"
       d="M 108.82337,125.62962 V 63.518982 l 12.78123,10e-7"
       id="path848" />
    <path
       style="fill:none;stroke:#000000;stroke-width:3.98332;stroke-linecap:butt;stroke-linejoin:miter;stroke-miterlimit:4;stroke-dasharray:none;stroke-opacity:1"
       d="m 108.82337,82.125395 12.26654,-0.267716"
       id="path850" />
    <path
       id="path854"
       style="fill:none;stroke:#000000;stroke-width:3.98332;stroke-linecap:butt;stroke-linejoin:miter;stroke-miterlimit:4;stroke-dasharray:none;stroke-opacity:1"
       d="m 125.55048,97.251473 c -6.18951,3.485417 -8.39429,18.577307 -2.51297,24.490697 6.39577,1.46312 9.59063,-13.43331 4.92328,-19.59258 -0.83142,-1.59717 -1.72614,-3.129292 -2.41031,-4.898117 z" />
    <path
       id="path856"
       style="fill:none;stroke:#000000;stroke-width:3.98332;stroke-linecap:butt;stroke-linejoin:miter;stroke-miterlimit:4;stroke-dasharray:none;stroke-opacity:1"
       d="m 142.44201,95.981788 c -5.26759,-2.339684 -10.39675,8.437722 -7.16043,15.505522 2.14049,3.83267 2.4641,11.12224 6.24834,11.96397 2.49658,-2.66333 5.1245,-6.54872 6.80079,-10.7453 0.20354,-4.75214 0.6732,-11.24768 -2.12052,-14.520219 -1.13537,-1.155819 -2.45431,-1.764596 -3.76818,-2.203973 z" />
    <path
       id="path858"
       style="fill:none;stroke:#000000;stroke-width:3.98332;stroke-linecap:butt;stroke-linejoin:miter;stroke-miterlimit:4;stroke-dasharray:none;stroke-opacity:1"
       d="m 161.65927,101.64586 c -7.66044,1.52695 -9.33511,26.12956 -0.81935,19.73065 1.48486,-8.92264 -0.10441,-18.46075 0.80641,-27.638813 0.11868,-6.600234 0.23737,-13.200449 0.35605,-19.800672" />
    <path
       style="fill:none;stroke:#000000;stroke-width:3.98332;stroke-linecap:butt;stroke-linejoin:miter;stroke-miterlimit:4;stroke-dasharray:none;stroke-opacity:1"
       d="m 168.92185,103.53677 32.51143,0.3786"
       id="path864" />
    <path
       style="fill:none;stroke:#000000;stroke-width:5.48277;stroke-linecap:butt;stroke-linejoin:miter;stroke-miterlimit:4;stroke-dasharray:none;stroke-opacity:1"
       d="m 195.62207,95.824961 5.81121,8.090409 -6.29876,7.43726"
       id="path866" />
    <path
       id="path868"
       style="fill:none;stroke:#000000;stroke-width:3.98332;stroke-linecap:butt;stroke-linejoin:miter;stroke-miterlimit:4;stroke-dasharray:none;stroke-opacity:1"
       d="m 226.95217,83.204154 c -6.3034,-0.016 -15.44398,9.498776 -13.19451,21.510966 -2.00386,16.99742 5.69997,15.19859 10.52209,18.30227 3.02743,-0.97802 9.65742,-8.80798 6.94054,-16.74799 -2.59825,-0.19493 -5.19651,-0.38986 -7.79477,-0.58479" />
    <path
       style="fill:none;stroke:#000000;stroke-width:3.98332;stroke-linecap:round;stroke-linejoin:miter;stroke-miterlimit:4;stroke-dasharray:none;stroke-opacity:1"
       d="m 236.71786,88.961721 -0.68624,33.330909"
       id="path870" />
    <path
       style="fill:none;stroke:#000000;stroke-width:3.98332;stroke-linecap:butt;stroke-linejoin:miter;stroke-miterlimit:4;stroke-dasharray:none;stroke-opacity:1"
       d="m 241.95401,100.7318 -0.51467,18.74029 c 2.84245,9.1617 4.98635,4.15209 7.20552,0.6693 l 0.34312,-19.67729"
       id="path872" />
    <path
       id="path874"
       style="fill:none;stroke:#000000;stroke-width:3.98332;stroke-linecap:butt;stroke-linejoin:miter;stroke-miterlimit:4;stroke-dasharray:none;stroke-opacity:1"
       d="m 262.51789,101.554 c -4.61129,-0.46567 -7.69511,2.10235 -8.74957,8.70084 -0.75055,11.31103 4.34988,9.57861 7.80599,11.51188" />
    <path
       id="path876"
       style="fill:none;stroke:#000000;stroke-width:3.98332;stroke-linecap:butt;stroke-linejoin:miter;stroke-miterlimit:4;stroke-dasharray:none;stroke-opacity:1"
       d="m 270.26396,102.63438 c -4.56686,0.8275 -6.74544,11.10635 -4.09087,16.51219 4.15486,4.07636 10.34142,-10.02509 5.60152,-14.5093 l -0.76485,-0.98415 z" />
    <path
       id="path878"
       style="fill:none;stroke:#000000;stroke-width:3.11178;stroke-linecap:butt;stroke-linejoin:miter;stroke-miterlimit:4;stroke-dasharray:none;stroke-opacity:1"
       d="m 285.25944,101.7069 c -1.72375,-0.87996 -10.49912,1.33611 -6.69037,6.778 1.3477,2.1837 3.81086,3.29729 6.67899,5.37589 0.0731,4.15342 -0.94725,7.61186 -9.39977,6.34708" />
    <path
       style="fill:none;stroke:#000000;stroke-width:3.23562;stroke-linecap:round;stroke-linejoin:miter;stroke-miterlimit:4;stroke-dasharray:none;stroke-opacity:1"
       d="m 291.13043,106.45858 9.13998,1.14651 c -1.25103,-2.54523 0.63693,-9.631917 -4.17757,-7.879479 -2.3581,0.514909 -4.60538,1.391819 -5.38775,7.053599 -0.33948,3.07981 -2.78871,4.88744 0.49623,10.1529 4.55726,5.01265 6.63792,2.55813 8.86145,0.53435"
       id="path880" />
    <path
       style="fill:none;stroke:#000000;stroke-width:3.98332;stroke-linecap:round;stroke-linejoin:miter;stroke-miterlimit:4;stroke-dasharray:none;stroke-opacity:1"
       d="M 317.99825,87.798987 317.74092,123.1378"
       id="path882" />
    <path
       style="fill:none;stroke:#000000;stroke-width:3.98332;stroke-linecap:round;stroke-linejoin:miter;stroke-miterlimit:4;stroke-dasharray:none;stroke-opacity:1"
       d="m 308.47666,103.99593 19.38631,-0.40157"
       id="path884" />
    <path
       id="path886"
       style="fill:none;stroke:#000000;stroke-width:3.98332;stroke-linecap:butt;stroke-linejoin:miter;stroke-miterlimit:4;stroke-dasharray:none;stroke-opacity:1"
       d="m 345.35347,92.133985 c -9.35171,1.958797 -12.62652,29.714005 -1.10595,29.345365 9.46774,-1.96894 8.6675,-24.003716 1.10595,-29.345365 z" />
    <path
       style="fill:none;stroke:#000000;stroke-width:3.98332;stroke-linecap:round;stroke-linejoin:miter;stroke-miterlimit:4;stroke-dasharray:none;stroke-opacity:1"
       d="m 363.20077,100.8942 -8.14911,19.54343"
       id="path890" />
    <path
       id="path892"
       style="fill:none;stroke:#000000;stroke-width:3.98332;stroke-linecap:round;stroke-linejoin:miter;stroke-miterlimit:4;stroke-dasharray:none;stroke-opacity:1"
       d="m 368.99429,100.4641 c 1.48685,6.33601 2.9737,12.67198 4.46056,19.00799 1.48685,-5.8898 2.9737,-11.77959 4.46055,-17.6694 -2.37226,9.77024 -4.66104,19.6643 -8.05074,28.71767 -1.11933,3.36717 -2.23866,6.7343 -3.358,10.10147 -2.07297,0.11715 -4.55338,0.66471 -6.16632,-1.85759 -1.00658,-1.69862 -0.70979,-4.33611 -0.25738,-6.32894 0.52189,-2.37146 1.63103,-4.43035 3.17364,-5.27859 3.50166,-2.01646 6.90485,-4.42405 10.35671,-6.64173 1.63151,-1.0715 3.26428,-2.13847 4.90255,-3.18463" />
    <path
       id="path894"
       style="fill:none;stroke:#000000;stroke-width:3.98332;stroke-linecap:round;stroke-linejoin:round;stroke-miterlimit:4;stroke-dasharray:none;stroke-opacity:1"
       d="m 394.7283,98.18849 c -8.79276,0.959161 -6.23483,7.82254 -5.91882,13.51976 2.02165,4.51379 7.74709,6.37966 6.0715,-1.68807 -0.0508,-3.94363 -0.10181,-7.88955 -0.15268,-11.83169 z" />
    <path
       style="fill:none;stroke:#000000;stroke-width:3.98332;stroke-linecap:butt;stroke-linejoin:miter;stroke-miterlimit:4;stroke-dasharray:none;stroke-opacity:1"
       d="m 394.98564,118.13349 -0.42891,19.40958 c -4.6345,-0.0836 -12.01527,6.26095 -8.06333,-13.92135 l 11.58032,-8.70084"
       id="path896" />
    <path
       id="path898"
       style="fill:none;stroke:#000000;stroke-width:3.98332;stroke-linecap:butt;stroke-linejoin:miter;stroke-miterlimit:4;stroke-dasharray:none;stroke-opacity:1"
       d="m 401.76225,105.41689 c 3.48001,7.27836 9.74807,-9.446203 2.76504,-5.46819 -1.17504,1.49733 -1.74333,3.76441 -2.76504,5.46819 z" />
    <path
       id="path900"
       style="fill:none;stroke:#000000;stroke-width:3.98332;stroke-linecap:butt;stroke-linejoin:miter;stroke-miterlimit:4;stroke-dasharray:none;stroke-opacity:1"
       d="m 401.76225,105.41689 c -2.45585,6.71254 2.51365,17.57825 7.37709,12.98403" />
    <path
       id="path902"
       style="fill:none;stroke:#000000;stroke-width:3.98332;stroke-linecap:round;stroke-linejoin:miter;stroke-miterlimit:4;stroke-dasharray:none;stroke-opacity:1"
       d="m 414.54349,97.920769 c -0.0572,7.719221 -0.11437,15.438411 -0.17155,23.157641 0.0858,-6.55911 0.17156,-13.11821 0.25733,-19.67731 2.06852,0.61413 6.49562,-1.548208 5.65962,4.17693 -0.11375,4.89908 -0.22751,9.79816 -0.34125,14.69721" />
    <path
       id="path906"
       style="fill:none;stroke:#000000;stroke-width:3.98332;stroke-linecap:round;stroke-linejoin:miter;stroke-miterlimit:4;stroke-dasharray:none;stroke-opacity:1"
       d="m 461.04307,88.826396 c 5.96334,0.742944 10.12642,0.281894 14.55735,0 z" />
    <path
       id="path908"
       style="fill:none;stroke:#000000;stroke-width:3.98332;stroke-linecap:round;stroke-linejoin:miter;stroke-miterlimit:4;stroke-dasharray:none;stroke-opacity:1"
       d="m 463.10179,88.960264 c -0.28305,12.241736 -0.56612,24.483486 -0.84917,36.725236 h 14.43605" />
    <path
       id="path910"
       style="fill:none;stroke:#000000;stroke-width:3.98332;stroke-linecap:round;stroke-linejoin:miter;stroke-miterlimit:4;stroke-dasharray:none;stroke-opacity:1"
       d="m 462.49523,107.70148 c 4.48852,-0.0632 8.97704,-0.12615 13.46556,-0.1893" />
    <path
       id="path912"
       style="fill:none;stroke:#000000;stroke-width:3.98332;stroke-linecap:butt;stroke-linejoin:miter;stroke-miterlimit:4;stroke-dasharray:none;stroke-opacity:1"
       d="m 482.02636,126.63203 c 0.51161,-7.50501 -0.16722,-24.09678 1.10696,-25.78103 2.50205,8.34127 5.00409,16.68253 7.50614,25.0238 0.28307,-9.21287 0.56613,-18.42571 0.8492,-27.638578" />
    <path
       id="path914"
       style="fill:none;stroke:#000000;stroke-width:3.98332;stroke-linecap:butt;stroke-linejoin:miter;stroke-miterlimit:4;stroke-dasharray:none;stroke-opacity:1"
       d="m 505.59272,97.691279 c -1.79729,1.077485 -8.04226,-1.809499 -8.01575,1.893735 1.1336,7.771266 -1.72695,21.904786 1.77023,25.911166 h 5.72831" />
    <path
       id="path916"
       style="fill:none;stroke:#000000;stroke-width:3.98332;stroke-linecap:butt;stroke-linejoin:miter;stroke-miterlimit:4;stroke-dasharray:none;stroke-opacity:1"
       d="m 497.67553,110.91968 c 1.73879,0 3.47759,0 5.21638,0" />
    <path
       id="path918"
       style="fill:none;stroke:#000000;stroke-width:3.98332;stroke-linecap:butt;stroke-linejoin:miter;stroke-miterlimit:4;stroke-dasharray:none;stroke-opacity:1"
       d="m 509.88144,98.922462 c -0.16556,7.957438 -0.52902,25.426118 -0.56865,27.330948 0.18955,-9.11031 0.3791,-18.22063 0.56865,-27.330948 z" />
    <path
       id="path920"
       style="fill:none;stroke:#000000;stroke-width:3.98332;stroke-linecap:butt;stroke-linejoin:miter;stroke-miterlimit:4;stroke-dasharray:none;stroke-opacity:1"
       d="m 517.16012,97.786616 c -2.96518,-2.24962 -6.08345,-5.24577 -7.27868,1.135846 l -0.36394,11.547628 c 6.26124,-0.11844 8.02501,0.0919 7.64262,-12.683474 z" />
    <path
       id="path922"
       style="fill:none;stroke:#000000;stroke-width:3.98332;stroke-linecap:butt;stroke-linejoin:miter;stroke-miterlimit:4;stroke-dasharray:none;stroke-opacity:1"
       d="m 509.5175,110.47009 c 2.38579,5.99467 4.77158,11.98934 7.15737,17.98401" />
    <path
       id="path924"
       style="fill:none;stroke:#000000;stroke-width:3.84545;stroke-linecap:round;stroke-linejoin:miter;stroke-miterlimit:4;stroke-dasharray:none;stroke-opacity:1"
       d="m 532.57389,95.797488 c -5.07247,-1.836845 -11.76719,6.754442 -10.35641,14.268682 0.0867,7.14547 1.77974,9.73881 3.33978,15.807 4.80778,-0.34356 13.75993,1.09826 10.11885,-9.41198 1.04416,-7.61088 -9.60143,-6.89732 -6.00567,1.09695" />
    <path
       id="path926"
       style="fill:none;stroke:#000000;stroke-width:3.98332;stroke-linecap:round;stroke-linejoin:miter;stroke-miterlimit:4;stroke-dasharray:none;stroke-opacity:1"
       d="m 538.959,94.060351 c 1.88502,4.612234 2.3601,16.184049 5.13488,16.213719 1.18264,-4.19556 4.31249,-15.77107 4.34583,-15.581255 -2.50322,8.544375 -6.2604,16.933265 -5.42906,26.835325 -0.0161,2.01309 -0.0322,4.02617 -0.0484,6.03926" />
    <path
       style="fill:none;stroke:#000000;stroke-width:3.71568;stroke-linecap:round;stroke-linejoin:miter;stroke-miterlimit:4;stroke-dasharray:none;stroke-opacity:1"
       d="m 354.40687,100.50787 9.21964,19.30916"
       id="path1083" />
    <path
       style="fill:none;stroke:#000000;stroke-width:2.55593;stroke-linecap:round;stroke-linejoin:miter;stroke-miterlimit:4;stroke-dasharray:none;stroke-opacity:1"
       d="M 426.89581,109.83424 454.517,109.56651"
       id="path1194" />
    <path
       style="fill:none;stroke:#000000;stroke-width:2.55593;stroke-linecap:round;stroke-linejoin:miter;stroke-miterlimit:4;stroke-dasharray:none;stroke-opacity:1"
       d="m 449.79909,101.53497 4.71791,8.03154 -5.23259,8.43312"
       id="path1196" />
  </g>
</svg>
