<?xml version="1.0" encoding="UTF-8" standalone="no"?>
<svg
   xmlns:dc="http://purl.org/dc/elements/1.1/"
   xmlns:cc="http://creativecommons.org/ns#"
   xmlns:rdf="http://www.w3.org/1999/02/22-rdf-syntax-ns#"
   xmlns:svg="http://www.w3.org/2000/svg"
   xmlns="http://www.w3.org/2000/svg"
   xmlns:sodipodi="http://sodipodi.sourceforge.net/DTD/sodipodi-0.dtd"
   xmlns:inkscape="http://www.inkscape.org/namespaces/inkscape"
   width="500mm"
   height="500mm"
   viewBox="0 0 500 500"
   version="1.1"
   id="svg8"
   sodipodi:docname="toothbrush.svg"
   inkscape:version="1.0.2 (e86c870879, 2021-01-15, custom)">
  <sodipodi:namedview
     pagecolor="#ffffff"
     bordercolor="#666666"
     borderopacity="1"
     objecttolerance="10"
     gridtolerance="10"
     guidetolerance="10"
     inkscape:pageopacity="0"
     inkscape:pageshadow="2"
     inkscape:window-width="1920"
     inkscape:window-height="1001"
     id="namedview16"
     showgrid="false"
     inkscape:zoom="0.29997137"
     inkscape:cx="-811.84101"
     inkscape:cy="1120.902"
     inkscape:window-x="-9"
     inkscape:window-y="-9"
     inkscape:window-maximized="1"
     inkscape:current-layer="svg8" />
  <defs
     id="defs2" />
  <metadata
     id="metadata5">
    <rdf:RDF>
      <cc:Work
         rdf:about="">
        <dc:format>image/svg+xml</dc:format>
        <dc:type
           rdf:resource="http://purl.org/dc/dcmitype/StillImage" />
        <dc:title />
      </cc:Work>
    </rdf:RDF>
  </metadata>
  <g
     id="g914"
     transform="matrix(1.0066229,0.24266667,-0.25180021,0.97010973,64.648433,36.461999)">
    <path
       id="path865"
       style="fill:#5fd3bc;stroke:#000000;stroke-width:2.07875;stroke-linecap:butt;stroke-linejoin:miter;stroke-miterlimit:4;stroke-dasharray:none;stroke-opacity:1"
       d="m 296.03264,160.83964 c -35.56958,11.2248 -71.29063,21.79051 -106.76492,33.4299 -21.37611,8.69355 -43.02938,16.48674 -64.23081,25.74775 -6.85214,4.09556 -14.30221,7.28502 -20.78557,11.93944 -1.86708,4.17406 -7.076244,8.26048 -2.70325,12.59818 1.54274,5.79527 5.26967,6.75906 9.73272,6.09455 7.50597,1.63947 13.96532,-4.30225 20.89056,-6.86919 27.18153,-13.11999 55.22982,-23.23611 82.81171,-34.96857 24.32604,-9.81869 48.57146,-20.23447 72.93428,-29.73075 17.37526,-1.29024 34.71244,1.64847 51.97069,3.40369 8.19726,-1.56964 16.85984,-1.03338 24.19821,-6.4901 16.17977,-8.82044 32.35954,-17.64086 48.53931,-26.46128 -0.15567,-4.3352 4.38515,-10.90353 -0.0706,-13.19403 -6.08613,-8.76442 -13.75476,2.33706 -20.72171,4.39056 -17.1009,9.14944 -35.0088,16.13848 -52.5672,23.58875 -14.15761,0.3478 -28.29047,-1.95639 -42.17981,-5.21834 -0.35119,0.57982 -0.70236,1.15963 -1.05354,1.73944 z" />
    <path
       style="fill:#f2f2f2;stroke:#000000;stroke-width:2.07875;stroke-linecap:butt;stroke-linejoin:miter;stroke-miterlimit:4;stroke-dasharray:none;stroke-opacity:1"
       d="m 347.16842,160.37208 -9.06383,-31.05679 -0.12419,-5.38112 4.09735,-1.53747 1.24163,-2.3062 4.34566,1.53747 c 0,0 2.11076,-3.84366 2.97991,-3.38242 0.86913,0.46124 1.98656,1.69121 1.98656,1.69121 l 2.11076,-3.84366 3.60073,1.69121 2.85572,-4.76614 2.73157,1.69121 6.33226,-5.84236 3.47654,0.61497 1.36577,-3.84365 3.6007,1.6912 2.3591,-3.53616 3.22823,1.99871 1.98656,-4.9199 c 0,0 3.22822,3.68993 4.09736,3.07493 0.86916,-0.61497 2.6074,-3.53616 2.6074,-3.53616 l 8.69136,16.45087 6.03338,15.27701 z"
       id="path867" />
    <path
       style="fill:#ffdd55;stroke:#000000;stroke-width:2.07875;stroke-linecap:butt;stroke-linejoin:miter;stroke-miterlimit:4;stroke-dasharray:none;stroke-opacity:1"
       d="m 339.22821,182.58269 3.96704,-8.98841 48.05075,-23.98445 19.86594,-6.45735 2.23491,1.38373 -0.72128,4.99705 -55.83819,30.44026 -17.55917,2.60917"
       id="path869" />
    <path
       style="fill:#ffdd55;stroke:#000000;stroke-width:2.07875;stroke-linecap:butt;stroke-linejoin:miter;stroke-miterlimit:4;stroke-dasharray:none;stroke-opacity:1"
       d="m 109.20301,229.11278 4.3898,4.78347 28.27027,-6.08806 60.57915,-24.13476 29.85059,-15.22013 2.45829,-8.26235 -107.28655,38.48517 z"
       id="path871" />
    <path
       style="fill:none;stroke:#000000;stroke-width:2.07875;stroke-linecap:butt;stroke-linejoin:miter;stroke-miterlimit:4;stroke-dasharray:none;stroke-opacity:1"
       d="m 345.30602,125.93287 7.07722,27.36688"
       id="path873" />
    <path
       style="fill:none;stroke:#000000;stroke-width:2.07875;stroke-linecap:butt;stroke-linejoin:miter;stroke-miterlimit:4;stroke-dasharray:none;stroke-opacity:1"
       d="m 352.01077,126.08662 1.48994,12.76096 4.84233,9.83977"
       id="path875" />
    <path
       style="fill:none;stroke:#000000;stroke-width:2.07875;stroke-linecap:butt;stroke-linejoin:miter;stroke-miterlimit:4;stroke-dasharray:none;stroke-opacity:1"
       d="m 364.79945,117.93805 7.69805,26.13691"
       id="path877" />
    <path
       style="fill:none;stroke:#000000;stroke-width:2.07875;stroke-linecap:butt;stroke-linejoin:miter;stroke-miterlimit:4;stroke-dasharray:none;stroke-opacity:1"
       d="m 390.62519,109.32825 5.58729,23.52321"
       id="path879" />
  </g>
</svg>
