<?xml version="1.0" encoding="UTF-8" standalone="no"?>
<svg
   xmlns:dc="http://purl.org/dc/elements/1.1/"
   xmlns:cc="http://creativecommons.org/ns#"
   xmlns:rdf="http://www.w3.org/1999/02/22-rdf-syntax-ns#"
   xmlns:svg="http://www.w3.org/2000/svg"
   xmlns="http://www.w3.org/2000/svg"
   width="210mm"
   height="297mm"
   viewBox="0 0 210 297"
   version="1.1"
   id="svg3538">
  <defs
     id="defs3532" />
  <metadata
     id="metadata3535">
    <rdf:RDF>
      <cc:Work
         rdf:about="">
        <dc:format>image/svg+xml</dc:format>
        <dc:type
           rdf:resource="http://purl.org/dc/dcmitype/StillImage" />
        <dc:title></dc:title>
      </cc:Work>
    </rdf:RDF>
  </metadata>
  <g
     id="layer1">
    <path
       id="path4165"
       style="fill:#ffdd55;stroke:#000000;stroke-width:2;stroke-linecap:butt;stroke-linejoin:miter;stroke-miterlimit:4;stroke-dasharray:none;stroke-opacity:1"
       d="m 100.38606,174.70727 c 2.17402,-8.3334 -6.290107,-14.4979 -13.656899,-17.76848 -7.511831,-3.66085 -15.845616,-8.59663 -16.924279,-16.90499 -6.58633,-15.83162 -2.147056,-38.63123 12.508594,-49.438448 11.378625,-15.346218 39.131554,-16.772807 54.639664,-3.646364 17.79107,13.977362 23.08167,38.745142 13.57936,57.959952 -6.41888,8.8677 -21.06271,12.38275 -23.09915,23.87764 -0.27414,2.08099 -0.0169,4.19938 0.58801,6.21639" />
    <path
       id="path4167"
       style="fill:#c8beb7;stroke:#000000;stroke-width:2;stroke-linecap:butt;stroke-linejoin:miter;stroke-miterlimit:4;stroke-dasharray:none;stroke-opacity:1"
       d="m 100.38611,174.625 27.63525,0.37797 c -1.12322,1.7786 0.97271,3.54565 -0.83556,4.21528 -4.92597,1.82418 -15.58804,-0.2483 -22.43477,-0.10227 -6.98735,1.99917 -5.433335,-1.27898 -4.36492,-4.49098 z" />
    <path
       id="path4167-7"
       style="fill:#c8beb7;stroke:#000000;stroke-width:2;stroke-linecap:butt;stroke-linejoin:miter;stroke-miterlimit:4;stroke-dasharray:none;stroke-opacity:1"
       d="m 99.905002,179.33785 27.635258,0.37797 c 0.55826,1.33273 1.90101,3.55285 -0.50939,4.52291 -6.21623,2.5017 -19.80206,1.0081 -25.31063,-0.50439 -1.907375,-0.66048 -1.3669,-1.9786 -1.815238,-4.39649 z" />
    <path
       id="path4167-1"
       style="fill:#c8beb7;stroke:#000000;stroke-width:2;stroke-linecap:butt;stroke-linejoin:miter;stroke-miterlimit:4;stroke-dasharray:none;stroke-opacity:1"
       d="m 100.16973,184.47454 27.63525,0.37797 c -0.85003,7.62972 -15.72308,6.17511 -23.27033,4.11301 -1.33318,-0.58979 -0.89739,-0.34993 -1.33318,-0.58979 -1.42832,-0.78613 -2.68821,-2.04856 -3.03174,-3.90119 z" />
    <path
       id="path4230"
       style="fill:#6c5d53;stroke:#000000;stroke-width:2;stroke-linecap:butt;stroke-linejoin:miter;stroke-miterlimit:4;stroke-dasharray:none;stroke-opacity:1"
       d="m 110.27846,190.84913 c -0.0397,2.09967 -0.0795,4.19933 -0.1192,6.299 1.6753,1.11812 4.62265,1.85329 6.75859,0.72817 1.81292,-0.72788 1.27065,-2.08154 1.16165,-3.17155 -0.0978,-1.26132 0.0556,-2.52277 -0.0445,-3.78404 -2.50329,-0.0239 -5.25331,-0.0477 -7.7566,-0.0716 z" />
    <path
       id="path4238"
       style="fill:none;stroke:#000000;stroke-width:2;stroke-linecap:butt;stroke-linejoin:miter;stroke-opacity:1;stroke-miterlimit:4;stroke-dasharray:none"
       d="m 108.91233,174.12609 c -0.30594,-14.47501 -0.32663,-28.95382 -0.40091,-43.43129 -5.68759,-6.63936 -9.639486,5.40756 -2.2785,6.23116 5.66797,-0.37547 11.95285,1.72704 17.31751,-0.46273 6.97552,-4.43475 -4.46455,-12.28211 -5.54336,-4.10958 -0.155,14.0949 -0.009,28.20481 -0.1412,42.30698" />
  </g>
</svg>
